<?xml version="1.0" encoding="UTF-8" standalone="no"?>
<!DOCTYPE svg PUBLIC "-//W3C//DTD SVG 1.1//EN"
 "http://www.w3.org/Graphics/SVG/1.1/DTD/svg11.dtd">
<!-- Generated by graphviz version 2.40.1 (20161225.0304)
 -->
<!-- Title: oneDegreeRelationshipsDiagram Pages: 1 -->
<svg width="304pt" height="228pt"
 viewBox="0.00 0.00 304.00 228.20" xmlns="http://www.w3.org/2000/svg" xmlns:xlink="http://www.w3.org/1999/xlink">
<g id="graph0" class="graph" transform="scale(1 1) rotate(0) translate(4 224.2)">
<title>oneDegreeRelationshipsDiagram</title>
<polygon fill="#ffffff" stroke="transparent" points="-4,4 -4,-224.2 300,-224.2 300,4 -4,4"/>
<text text-anchor="middle" x="72.4936" y="-7.3" font-family="Helvetica,sans-Serif" font-size="11.00" fill="#000000">Generated by SchemaSpy</text>
<!-- instrument_alias_type -->
<g id="node1" class="node">
<title>instrument_alias_type</title>
<g id="a_node1"><a xlink:href="../../tables/instrument_alias_type.html" xlink:title="instrument_alias_type" target="_top">
<polygon fill="#ffffff" stroke="transparent" points="8,-38.2 8,-216.2 288,-216.2 288,-38.2 8,-38.2"/>
<polygon fill="#f5f5f5" stroke="transparent" points="10,-191.2 10,-214.2 286,-214.2 286,-191.2 10,-191.2"/>
<polygon fill="none" stroke="#000000" points="10,-191.2 10,-214.2 286,-214.2 286,-191.2 10,-191.2"/>
<text text-anchor="start" x="15" y="-199.8" font-family="Helvetica,sans-Serif" font-weight="bold" font-size="11.00" fill="#000000">instrument_alias_type</text>
<text text-anchor="start" x="251.0437" y="-199.3" font-family="Helvetica,sans-Serif" font-size="11.00" fill="#000000">[table]</text>
<polygon fill="none" stroke="#000000" points="10,-169.2 10,-191.2 192,-191.2 192,-169.2 10,-169.2"/>
<image xlink:href="../../images/primaryKeys.png" width="11px" height="12px" preserveAspectRatio="xMinYMin meet" x="15" y="-186.2"/>
<text text-anchor="start" x="30" y="-176.3" font-family="Helvetica,sans-Serif" font-size="11.00" fill="#000000">id</text>
<polygon fill="none" stroke="#000000" points="192,-169.2 192,-191.2 286,-191.2 286,-169.2 192,-169.2"/>
<text text-anchor="start" x="195" y="-176.9" font-family="Helvetica,sans-Serif" font-size="11.00" fill="#000000">serial[10]</text>
<polygon fill="none" stroke="#000000" points="10,-147.2 10,-169.2 192,-169.2 192,-147.2 10,-147.2"/>
<text text-anchor="start" x="30" y="-154.3" font-family="Helvetica,sans-Serif" font-size="11.00" fill="#000000">name</text>
<polygon fill="none" stroke="#000000" points="192,-147.2 192,-169.2 286,-169.2 286,-147.2 192,-147.2"/>
<text text-anchor="start" x="195" y="-154.9" font-family="Helvetica,sans-Serif" font-size="11.00" fill="#000000">text[2147483647]</text>
<polygon fill="none" stroke="#000000" points="10,-125.2 10,-147.2 192,-147.2 192,-125.2 10,-125.2"/>
<text text-anchor="start" x="30" y="-132.3" font-family="Helvetica,sans-Serif" font-size="11.00" fill="#000000">parent</text>
<polygon fill="none" stroke="#000000" points="192,-125.2 192,-147.2 286,-147.2 286,-125.2 192,-125.2"/>
<text text-anchor="start" x="195" y="-132.9" font-family="Helvetica,sans-Serif" font-size="11.00" fill="#000000">int4[10]</text>
<polygon fill="none" stroke="#000000" points="10,-103.2 10,-125.2 192,-125.2 192,-103.2 10,-103.2"/>
<text text-anchor="start" x="30" y="-110.3" font-family="Helvetica,sans-Serif" font-size="11.00" fill="#000000">child_order</text>
<polygon fill="none" stroke="#000000" points="192,-103.2 192,-125.2 286,-125.2 286,-103.2 192,-103.2"/>
<text text-anchor="start" x="195" y="-110.9" font-family="Helvetica,sans-Serif" font-size="11.00" fill="#000000">int4[10]</text>
<polygon fill="none" stroke="#000000" points="10,-81.2 10,-103.2 192,-103.2 192,-81.2 10,-81.2"/>
<text text-anchor="start" x="30" y="-88.3" font-family="Helvetica,sans-Serif" font-size="11.00" fill="#000000">description</text>
<polygon fill="none" stroke="#000000" points="192,-81.2 192,-103.2 286,-103.2 286,-81.2 192,-81.2"/>
<text text-anchor="start" x="195" y="-88.9" font-family="Helvetica,sans-Serif" font-size="11.00" fill="#000000">text[2147483647]</text>
<polygon fill="#ffffff" stroke="transparent" points="10,-59.2 10,-81.2 192,-81.2 192,-59.2 10,-59.2"/>
<polygon fill="none" stroke="#000000" points="10,-59.2 10,-81.2 192,-81.2 192,-59.2 10,-59.2"/>
<text text-anchor="start" x="30" y="-66.3" font-family="Helvetica,sans-Serif" font-size="11.00" fill="#000000">gid</text>
<polygon fill="none" stroke="#000000" points="192,-59.2 192,-81.2 286,-81.2 286,-59.2 192,-59.2"/>
<text text-anchor="start" x="194.9758" y="-66.9" font-family="Helvetica,sans-Serif" font-size="11.00" fill="#000000">uuid[2147483647]</text>
<polygon fill="#ffffff" stroke="transparent" points="10,-40.2 10,-59.2 286,-59.2 286,-40.2 10,-40.2"/>
<polygon fill="none" stroke="#000000" points="10,-40.2 10,-59.2 286,-59.2 286,-40.2 10,-40.2"/>
<polygon fill="#ffffff" stroke="transparent" points="11,-41.2 11,-58.2 97,-58.2 97,-41.2 11,-41.2"/>
<text text-anchor="start" x="13" y="-46.3" font-family="Helvetica,sans-Serif" font-size="11.00" fill="#000000">&lt; 0</text>
<polygon fill="#ffffff" stroke="transparent" points="97,-41.2 97,-58.2 200,-58.2 200,-41.2 97,-41.2"/>
<text text-anchor="start" x="132.3053" y="-46.3" font-family="Helvetica,sans-Serif" font-size="11.00" fill="#000000">3 rows</text>
<polygon fill="#ffffff" stroke="transparent" points="200,-41.2 200,-58.2 285,-58.2 285,-41.2 200,-41.2"/>
<text text-anchor="start" x="267.4053" y="-46.3" font-family="Helvetica,sans-Serif" font-size="11.00" fill="#000000">0 &gt;</text>
<polygon fill="#000000" stroke="#000000" points="97,-41.2 97,-58.2 97,-58.2 97,-41.2 97,-41.2"/>
<polygon fill="#000000" stroke="#000000" points="200,-41.2 200,-58.2 200,-58.2 200,-41.2 200,-41.2"/>
<polygon fill="none" stroke="#000000" stroke-width="2" points="9,-39.2 9,-215.2 287,-215.2 287,-39.2 9,-39.2"/>
</a>
</g>
</g>
</g>
</svg>
