<?xml version="1.0" encoding="UTF-8" standalone="no"?>
<!DOCTYPE svg PUBLIC "-//W3C//DTD SVG 1.1//EN"
 "http://www.w3.org/Graphics/SVG/1.1/DTD/svg11.dtd">
<!-- Generated by graphviz version 2.40.1 (20161225.0304)
 -->
<!-- Title: oneDegreeRelationshipsDiagram Pages: 1 -->
<svg width="278pt" height="294pt"
 viewBox="0.00 0.00 278.00 294.20" xmlns="http://www.w3.org/2000/svg" xmlns:xlink="http://www.w3.org/1999/xlink">
<g id="graph0" class="graph" transform="scale(1 1) rotate(0) translate(4 290.2)">
<title>oneDegreeRelationshipsDiagram</title>
<polygon fill="#ffffff" stroke="transparent" points="-4,4 -4,-290.2 274,-290.2 274,4 -4,4"/>
<text text-anchor="middle" x="72.4936" y="-7.3" font-family="Helvetica,sans-Serif" font-size="11.00" fill="#000000">Generated by SchemaSpy</text>
<!-- l_instrument_place -->
<g id="node1" class="node">
<title>l_instrument_place</title>
<g id="a_node1"><a xlink:href="../../tables/l_instrument_place.html" xlink:title="l_instrument_place" target="_top">
<polygon fill="#ffffff" stroke="transparent" points="8,-38.2 8,-282.2 262,-282.2 262,-38.2 8,-38.2"/>
<polygon fill="#f5f5f5" stroke="transparent" points="10,-257.2 10,-280.2 260,-280.2 260,-257.2 10,-257.2"/>
<polygon fill="none" stroke="#000000" points="10,-257.2 10,-280.2 260,-280.2 260,-257.2 10,-257.2"/>
<text text-anchor="start" x="15" y="-265.8" font-family="Helvetica,sans-Serif" font-weight="bold" font-size="11.00" fill="#000000">l_instrument_place</text>
<text text-anchor="start" x="225.0437" y="-265.3" font-family="Helvetica,sans-Serif" font-size="11.00" fill="#000000">[table]</text>
<polygon fill="none" stroke="#000000" points="10,-235.2 10,-257.2 168,-257.2 168,-235.2 10,-235.2"/>
<image xlink:href="../../images/primaryKeys.png" width="11px" height="12px" preserveAspectRatio="xMinYMin meet" x="15" y="-252.2"/>
<text text-anchor="start" x="30" y="-242.3" font-family="Helvetica,sans-Serif" font-size="11.00" fill="#000000">id</text>
<polygon fill="none" stroke="#000000" points="168,-235.2 168,-257.2 260,-257.2 260,-235.2 168,-235.2"/>
<text text-anchor="start" x="171" y="-242.9" font-family="Helvetica,sans-Serif" font-size="11.00" fill="#000000">serial[10]</text>
<polygon fill="#ffffff" stroke="transparent" points="10,-213.2 10,-235.2 168,-235.2 168,-213.2 10,-213.2"/>
<polygon fill="none" stroke="#000000" points="10,-213.2 10,-235.2 168,-235.2 168,-213.2 10,-213.2"/>
<text text-anchor="start" x="30" y="-220.3" font-family="Helvetica,sans-Serif" font-size="11.00" fill="#000000">link</text>
<polygon fill="none" stroke="#000000" points="168,-213.2 168,-235.2 260,-235.2 260,-213.2 168,-213.2"/>
<text text-anchor="start" x="171" y="-220.9" font-family="Helvetica,sans-Serif" font-size="11.00" fill="#000000">int4[10]</text>
<polygon fill="#ffffff" stroke="transparent" points="10,-191.2 10,-213.2 168,-213.2 168,-191.2 10,-191.2"/>
<polygon fill="none" stroke="#000000" points="10,-191.2 10,-213.2 168,-213.2 168,-191.2 10,-191.2"/>
<text text-anchor="start" x="30" y="-198.3" font-family="Helvetica,sans-Serif" font-size="11.00" fill="#000000">entity0</text>
<polygon fill="none" stroke="#000000" points="168,-191.2 168,-213.2 260,-213.2 260,-191.2 168,-191.2"/>
<text text-anchor="start" x="171" y="-198.9" font-family="Helvetica,sans-Serif" font-size="11.00" fill="#000000">int4[10]</text>
<polygon fill="#ffffff" stroke="transparent" points="10,-169.2 10,-191.2 168,-191.2 168,-169.2 10,-169.2"/>
<polygon fill="none" stroke="#000000" points="10,-169.2 10,-191.2 168,-191.2 168,-169.2 10,-169.2"/>
<text text-anchor="start" x="30" y="-176.3" font-family="Helvetica,sans-Serif" font-size="11.00" fill="#000000">entity1</text>
<polygon fill="none" stroke="#000000" points="168,-169.2 168,-191.2 260,-191.2 260,-169.2 168,-169.2"/>
<text text-anchor="start" x="171" y="-176.9" font-family="Helvetica,sans-Serif" font-size="11.00" fill="#000000">int4[10]</text>
<polygon fill="none" stroke="#000000" points="10,-147.2 10,-169.2 168,-169.2 168,-147.2 10,-147.2"/>
<text text-anchor="start" x="30" y="-154.3" font-family="Helvetica,sans-Serif" font-size="11.00" fill="#000000">edits_pending</text>
<polygon fill="none" stroke="#000000" points="168,-147.2 168,-169.2 260,-169.2 260,-147.2 168,-147.2"/>
<text text-anchor="start" x="171" y="-154.9" font-family="Helvetica,sans-Serif" font-size="11.00" fill="#000000">int4[10]</text>
<polygon fill="none" stroke="#000000" points="10,-125.2 10,-147.2 168,-147.2 168,-125.2 10,-125.2"/>
<text text-anchor="start" x="30" y="-132.3" font-family="Helvetica,sans-Serif" font-size="11.00" fill="#000000">last_updated</text>
<polygon fill="none" stroke="#000000" points="168,-125.2 168,-147.2 260,-147.2 260,-125.2 168,-125.2"/>
<text text-anchor="start" x="170.6023" y="-132.9" font-family="Helvetica,sans-Serif" font-size="11.00" fill="#000000">timestamptz[35,6]</text>
<polygon fill="#ffffff" stroke="transparent" points="10,-103.2 10,-125.2 168,-125.2 168,-103.2 10,-103.2"/>
<polygon fill="none" stroke="#000000" points="10,-103.2 10,-125.2 168,-125.2 168,-103.2 10,-103.2"/>
<text text-anchor="start" x="30" y="-110.3" font-family="Helvetica,sans-Serif" font-size="11.00" fill="#000000">link_order</text>
<polygon fill="none" stroke="#000000" points="168,-103.2 168,-125.2 260,-125.2 260,-103.2 168,-103.2"/>
<text text-anchor="start" x="171" y="-110.9" font-family="Helvetica,sans-Serif" font-size="11.00" fill="#000000">int4[10]</text>
<polygon fill="none" stroke="#000000" points="10,-81.2 10,-103.2 168,-103.2 168,-81.2 10,-81.2"/>
<text text-anchor="start" x="30" y="-88.3" font-family="Helvetica,sans-Serif" font-size="11.00" fill="#000000">entity0_credit</text>
<polygon fill="none" stroke="#000000" points="168,-81.2 168,-103.2 260,-103.2 260,-81.2 168,-81.2"/>
<text text-anchor="start" x="171" y="-88.9" font-family="Helvetica,sans-Serif" font-size="11.00" fill="#000000">text[2147483647]</text>
<polygon fill="none" stroke="#000000" points="10,-59.2 10,-81.2 168,-81.2 168,-59.2 10,-59.2"/>
<text text-anchor="start" x="30" y="-66.3" font-family="Helvetica,sans-Serif" font-size="11.00" fill="#000000">entity1_credit</text>
<polygon fill="none" stroke="#000000" points="168,-59.2 168,-81.2 260,-81.2 260,-59.2 168,-59.2"/>
<text text-anchor="start" x="171" y="-66.9" font-family="Helvetica,sans-Serif" font-size="11.00" fill="#000000">text[2147483647]</text>
<polygon fill="#ffffff" stroke="transparent" points="10,-40.2 10,-59.2 260,-59.2 260,-40.2 10,-40.2"/>
<polygon fill="none" stroke="#000000" points="10,-40.2 10,-59.2 260,-59.2 260,-40.2 10,-40.2"/>
<polygon fill="#ffffff" stroke="transparent" points="11,-41.2 11,-58.2 88,-58.2 88,-41.2 11,-41.2"/>
<text text-anchor="start" x="13" y="-46.3" font-family="Helvetica,sans-Serif" font-size="11.00" fill="#000000">&lt; 0</text>
<polygon fill="#ffffff" stroke="transparent" points="88,-41.2 88,-58.2 182,-58.2 182,-41.2 88,-41.2"/>
<text text-anchor="start" x="118.8053" y="-46.3" font-family="Helvetica,sans-Serif" font-size="11.00" fill="#000000">0 rows</text>
<polygon fill="#ffffff" stroke="transparent" points="182,-41.2 182,-58.2 259,-58.2 259,-41.2 182,-41.2"/>
<text text-anchor="start" x="241.4053" y="-46.3" font-family="Helvetica,sans-Serif" font-size="11.00" fill="#000000">0 &gt;</text>
<polygon fill="#000000" stroke="#000000" points="88,-41.2 88,-58.2 88,-58.2 88,-41.2 88,-41.2"/>
<polygon fill="#000000" stroke="#000000" points="182,-41.2 182,-58.2 182,-58.2 182,-41.2 182,-41.2"/>
<polygon fill="none" stroke="#000000" stroke-width="2" points="9,-39.2 9,-281.2 261,-281.2 261,-39.2 9,-39.2"/>
</a>
</g>
</g>
</g>
</svg>
