<?xml version="1.0" encoding="UTF-8" standalone="no"?>
<!DOCTYPE svg PUBLIC "-//W3C//DTD SVG 1.1//EN"
 "http://www.w3.org/Graphics/SVG/1.1/DTD/svg11.dtd">
<!-- Generated by graphviz version 2.40.1 (20161225.0304)
 -->
<!-- Title: oneDegreeRelationshipsDiagramImplied Pages: 1 -->
<svg width="368pt" height="206pt"
 viewBox="0.00 0.00 368.00 206.20" xmlns="http://www.w3.org/2000/svg" xmlns:xlink="http://www.w3.org/1999/xlink">
<g id="graph0" class="graph" transform="scale(1 1) rotate(0) translate(4 202.2)">
<title>oneDegreeRelationshipsDiagramImplied</title>
<polygon fill="#ffffff" stroke="transparent" points="-4,4 -4,-202.2 364,-202.2 364,4 -4,4"/>
<text text-anchor="middle" x="72.4936" y="-7.3" font-family="Helvetica,sans-Serif" font-size="11.00" fill="#000000">Generated by SchemaSpy</text>
<!-- edit_note -->
<g id="node1" class="node">
<title>edit_note</title>
<g id="a_node1"><a xlink:href="../../tables/edit_note.html" xlink:title="edit_note" target="_top">
<polygon fill="#ffffff" stroke="transparent" points="164,-38.2 164,-194.2 352,-194.2 352,-38.2 164,-38.2"/>
<polygon fill="#f5f5f5" stroke="transparent" points="166,-169.2 166,-192.2 350,-192.2 350,-169.2 166,-169.2"/>
<polygon fill="none" stroke="#000000" points="166,-169.2 166,-192.2 350,-192.2 350,-169.2 166,-169.2"/>
<text text-anchor="start" x="171" y="-177.8" font-family="Helvetica,sans-Serif" font-weight="bold" font-size="11.00" fill="#000000">edit_note</text>
<text text-anchor="start" x="315.0437" y="-177.3" font-family="Helvetica,sans-Serif" font-size="11.00" fill="#000000">[table]</text>
<polygon fill="none" stroke="#000000" points="166,-147.2 166,-169.2 258,-169.2 258,-147.2 166,-147.2"/>
<image xlink:href="../../images/primaryKeys.png" width="11px" height="12px" preserveAspectRatio="xMinYMin meet" x="171" y="-164.2"/>
<text text-anchor="start" x="186" y="-154.3" font-family="Helvetica,sans-Serif" font-size="11.00" fill="#000000">id</text>
<polygon fill="none" stroke="#000000" points="258,-147.2 258,-169.2 350,-169.2 350,-147.2 258,-147.2"/>
<text text-anchor="start" x="261" y="-154.9" font-family="Helvetica,sans-Serif" font-size="11.00" fill="#000000">serial[10]</text>
<polygon fill="#ffffff" stroke="transparent" points="166,-125.2 166,-147.2 258,-147.2 258,-125.2 166,-125.2"/>
<polygon fill="none" stroke="#000000" points="166,-125.2 166,-147.2 258,-147.2 258,-125.2 166,-125.2"/>
<text text-anchor="start" x="186" y="-132.3" font-family="Helvetica,sans-Serif" font-size="11.00" fill="#000000">editor</text>
<polygon fill="none" stroke="#000000" points="258,-125.2 258,-147.2 350,-147.2 350,-125.2 258,-125.2"/>
<text text-anchor="start" x="261" y="-132.9" font-family="Helvetica,sans-Serif" font-size="11.00" fill="#000000">int4[10]</text>
<polygon fill="#ffffff" stroke="transparent" points="166,-103.2 166,-125.2 258,-125.2 258,-103.2 166,-103.2"/>
<polygon fill="none" stroke="#000000" points="166,-103.2 166,-125.2 258,-125.2 258,-103.2 166,-103.2"/>
<image xlink:href="../../images/foreignKeys.png" width="11px" height="12px" preserveAspectRatio="xMinYMin meet" x="171" y="-120.2"/>
<text text-anchor="start" x="186" y="-110.3" font-family="Helvetica,sans-Serif" font-size="11.00" fill="#000000">edit</text>
<polygon fill="none" stroke="#000000" points="258,-103.2 258,-125.2 350,-125.2 350,-103.2 258,-103.2"/>
<text text-anchor="start" x="261" y="-110.9" font-family="Helvetica,sans-Serif" font-size="11.00" fill="#000000">int4[10]</text>
<polygon fill="none" stroke="#000000" points="166,-81.2 166,-103.2 258,-103.2 258,-81.2 166,-81.2"/>
<text text-anchor="start" x="186" y="-88.3" font-family="Helvetica,sans-Serif" font-size="11.00" fill="#000000">text</text>
<polygon fill="none" stroke="#000000" points="258,-81.2 258,-103.2 350,-103.2 350,-81.2 258,-81.2"/>
<text text-anchor="start" x="261" y="-88.9" font-family="Helvetica,sans-Serif" font-size="11.00" fill="#000000">text[2147483647]</text>
<polygon fill="none" stroke="#000000" points="166,-59.2 166,-81.2 258,-81.2 258,-59.2 166,-59.2"/>
<text text-anchor="start" x="186" y="-66.3" font-family="Helvetica,sans-Serif" font-size="11.00" fill="#000000">post_time</text>
<polygon fill="none" stroke="#000000" points="258,-59.2 258,-81.2 350,-81.2 350,-59.2 258,-59.2"/>
<text text-anchor="start" x="260.6023" y="-66.9" font-family="Helvetica,sans-Serif" font-size="11.00" fill="#000000">timestamptz[35,6]</text>
<polygon fill="#ffffff" stroke="transparent" points="166,-40.2 166,-59.2 350,-59.2 350,-40.2 166,-40.2"/>
<polygon fill="none" stroke="#000000" points="166,-40.2 166,-59.2 350,-59.2 350,-40.2 166,-40.2"/>
<polygon fill="#ffffff" stroke="transparent" points="167,-41.2 167,-58.2 222,-58.2 222,-41.2 167,-41.2"/>
<text text-anchor="start" x="169" y="-46.3" font-family="Helvetica,sans-Serif" font-size="11.00" fill="#000000">&lt; 1</text>
<polygon fill="#ffffff" stroke="transparent" points="222,-41.2 222,-58.2 294,-58.2 294,-41.2 222,-41.2"/>
<text text-anchor="start" x="241.8053" y="-46.3" font-family="Helvetica,sans-Serif" font-size="11.00" fill="#000000">0 rows</text>
<polygon fill="#ffffff" stroke="transparent" points="294,-41.2 294,-58.2 349,-58.2 349,-41.2 294,-41.2"/>
<text text-anchor="start" x="331.4053" y="-46.3" font-family="Helvetica,sans-Serif" font-size="11.00" fill="#000000">0 &gt;</text>
<polygon fill="#000000" stroke="#000000" points="222,-41.2 222,-58.2 222,-58.2 222,-41.2 222,-41.2"/>
<polygon fill="#000000" stroke="#000000" points="294,-41.2 294,-58.2 294,-58.2 294,-41.2 294,-41.2"/>
<polygon fill="none" stroke="#000000" stroke-width="2" points="165,-39.2 165,-193.2 351,-193.2 351,-39.2 165,-39.2"/>
</a>
</g>
</g>
<!-- edit_data -->
<g id="node2" class="node">
<title>edit_data</title>
<g id="a_node2"><a xlink:href="../../tables/edit_data.html" xlink:title="edit_data" target="_top">
<polygon fill="#ffffff" stroke="transparent" points="8,-65.7 8,-148.7 115,-148.7 115,-65.7 8,-65.7"/>
<polygon fill="#f5f5f5" stroke="transparent" points="8.5,-125.2 8.5,-148.2 115.5,-148.2 115.5,-125.2 8.5,-125.2"/>
<polygon fill="none" stroke="#000000" points="8.5,-125.2 8.5,-148.2 115.5,-148.2 115.5,-125.2 8.5,-125.2"/>
<text text-anchor="start" x="13.5" y="-133.8" font-family="Helvetica,sans-Serif" font-weight="bold" font-size="11.00" fill="#000000">edit_data</text>
<text text-anchor="start" x="81.0219" y="-133.3" font-family="Helvetica,sans-Serif" font-size="11.00" fill="#000000">[table]</text>
<polygon fill="none" stroke="#000000" points="8.5,-103.2 8.5,-125.2 115.5,-125.2 115.5,-103.2 8.5,-103.2"/>
<image xlink:href="../../images/primaryKeys.png" width="11px" height="12px" preserveAspectRatio="xMinYMin meet" x="13.5" y="-120.2"/>
<text text-anchor="start" x="37.5" y="-110.3" font-family="Helvetica,sans-Serif" font-size="11.00" fill="#000000">edit</text>
<polygon fill="none" stroke="#000000" points="8.5,-84.2 8.5,-103.2 115.5,-103.2 115.5,-84.2 8.5,-84.2"/>
<text text-anchor="start" x="11.5" y="-90.3" font-family="Helvetica,sans-Serif" font-size="11.00" fill="#000000">...</text>
<polygon fill="#ffffff" stroke="transparent" points="8.5,-65.2 8.5,-84.2 115.5,-84.2 115.5,-65.2 8.5,-65.2"/>
<polygon fill="none" stroke="#000000" points="8.5,-65.2 8.5,-84.2 115.5,-84.2 115.5,-65.2 8.5,-65.2"/>
<polygon fill="#ffffff" stroke="transparent" points="9.5,-66.2 9.5,-83.2 33.5,-83.2 33.5,-66.2 9.5,-66.2"/>
<text text-anchor="start" x="11.5" y="-71.3" font-family="Helvetica,sans-Serif" font-size="11.00" fill="#000000"> &#160;</text>
<polygon fill="#ffffff" stroke="transparent" points="33.5,-66.2 33.5,-83.2 82.5,-83.2 82.5,-66.2 33.5,-66.2"/>
<text text-anchor="start" x="41.8053" y="-71.3" font-family="Helvetica,sans-Serif" font-size="11.00" fill="#000000">0 rows</text>
<polygon fill="#ffffff" stroke="transparent" points="82.5,-66.2 82.5,-83.2 114.5,-83.2 114.5,-66.2 82.5,-66.2"/>
<text text-anchor="start" x="96.9053" y="-71.3" font-family="Helvetica,sans-Serif" font-size="11.00" fill="#000000">2 &gt;</text>
<polygon fill="#000000" stroke="#000000" points="33.5,-66.2 33.5,-83.2 33.5,-83.2 33.5,-66.2 33.5,-66.2"/>
<polygon fill="#000000" stroke="#000000" points="82.5,-66.2 82.5,-83.2 82.5,-83.2 82.5,-66.2 82.5,-66.2"/>
</a>
</g>
</g>
<!-- edit_note&#45;&gt;edit_data -->
<g id="edge1" class="edge">
<title>edit_note:w&#45;&gt;edit_data:e</title>
<path fill="none" stroke="#000000" stroke-dasharray="5,2" d="M151.4203,-114.2C139.5435,-114.2 132.158,-114.2 115.5,-114.2"/>
<polygon fill="#000000" stroke="#000000" points="158,-114.2001 166,-117.8 162,-114.2 166,-114.2 166,-114.2 166,-114.2 162,-114.2 166,-110.6 158,-114.2001 158,-114.2001"/>
<ellipse fill="none" stroke="#000000" cx="154.8" cy="-114.2001" rx="3.2" ry="3.2"/>
</g>
</g>
</svg>
