<?xml version="1.0" encoding="UTF-8" standalone="no"?>
<!DOCTYPE svg PUBLIC "-//W3C//DTD SVG 1.1//EN"
 "http://www.w3.org/Graphics/SVG/1.1/DTD/svg11.dtd">
<!-- Generated by graphviz version 2.40.1 (20161225.0304)
 -->
<!-- Title: twoDegreesRelationshipsDiagramImplied Pages: 1 -->
<svg width="601pt" height="797pt"
 viewBox="0.00 0.00 601.00 797.20" xmlns="http://www.w3.org/2000/svg" xmlns:xlink="http://www.w3.org/1999/xlink">
<g id="graph0" class="graph" transform="scale(1 1) rotate(0) translate(4 793.2)">
<title>twoDegreesRelationshipsDiagramImplied</title>
<polygon fill="#ffffff" stroke="transparent" points="-4,4 -4,-793.2 597,-793.2 597,4 -4,4"/>
<text text-anchor="middle" x="72.4936" y="-7.3" font-family="Helvetica,sans-Serif" font-size="11.00" fill="#000000">Generated by SchemaSpy</text>
<!-- area_alias -->
<g id="node1" class="node">
<title>area_alias</title>
<g id="a_node1"><a xlink:href="../../tables/area_alias.html" xlink:title="area_alias" target="_top">
<polygon fill="#ffffff" stroke="transparent" points="212.5,-724.2 212.5,-785.2 324.5,-785.2 324.5,-724.2 212.5,-724.2"/>
<polygon fill="#f5f5f5" stroke="transparent" points="212.5,-761.7 212.5,-784.7 324.5,-784.7 324.5,-761.7 212.5,-761.7"/>
<polygon fill="none" stroke="#000000" points="212.5,-761.7 212.5,-784.7 324.5,-784.7 324.5,-761.7 212.5,-761.7"/>
<text text-anchor="start" x="217.5" y="-770.3" font-family="Helvetica,sans-Serif" font-weight="bold" font-size="11.00" fill="#000000">area_alias</text>
<text text-anchor="start" x="290.0219" y="-769.8" font-family="Helvetica,sans-Serif" font-size="11.00" fill="#000000">[table]</text>
<polygon fill="none" stroke="#000000" points="212.5,-742.7 212.5,-761.7 324.5,-761.7 324.5,-742.7 212.5,-742.7"/>
<text text-anchor="start" x="215.5" y="-748.8" font-family="Helvetica,sans-Serif" font-size="11.00" fill="#000000">...</text>
<polygon fill="#ffffff" stroke="transparent" points="212.5,-723.7 212.5,-742.7 324.5,-742.7 324.5,-723.7 212.5,-723.7"/>
<polygon fill="none" stroke="#000000" points="212.5,-723.7 212.5,-742.7 324.5,-742.7 324.5,-723.7 212.5,-723.7"/>
<polygon fill="#ffffff" stroke="transparent" points="213.5,-724.7 213.5,-741.7 238.5,-741.7 238.5,-724.7 213.5,-724.7"/>
<text text-anchor="start" x="215.5" y="-729.8" font-family="Helvetica,sans-Serif" font-size="11.00" fill="#000000">&lt; 1</text>
<polygon fill="#ffffff" stroke="transparent" points="238.5,-724.7 238.5,-741.7 307.5,-741.7 307.5,-724.7 238.5,-724.7"/>
<text text-anchor="start" x="243.047" y="-729.8" font-family="Helvetica,sans-Serif" font-size="11.00" fill="#000000">67,827 rows</text>
<polygon fill="#ffffff" stroke="transparent" points="307.5,-724.7 307.5,-741.7 323.5,-741.7 323.5,-724.7 307.5,-724.7"/>
<text text-anchor="start" x="315.3862" y="-729.8" font-family="Helvetica,sans-Serif" font-size="11.00" fill="#000000"> &#160;</text>
<polygon fill="#000000" stroke="#000000" points="238.5,-724.7 238.5,-741.7 238.5,-741.7 238.5,-724.7 238.5,-724.7"/>
<polygon fill="#000000" stroke="#000000" points="307.5,-724.7 307.5,-741.7 307.5,-741.7 307.5,-724.7 307.5,-724.7"/>
</a>
</g>
</g>
<!-- country_area -->
<g id="node2" class="node">
<title>country_area</title>
<g id="a_node2"><a xlink:href="../../tables/country_area.html" xlink:title="country_area" target="_top">
<polygon fill="#ffffff" stroke="transparent" points="8,-472.7 8,-536.7 142,-536.7 142,-472.7 8,-472.7"/>
<polygon fill="#f5f5f5" stroke="transparent" points="8,-513.7 8,-536.7 142,-536.7 142,-513.7 8,-513.7"/>
<polygon fill="none" stroke="#000000" points="8,-513.7 8,-536.7 142,-536.7 142,-513.7 8,-513.7"/>
<text text-anchor="start" x="13" y="-522.3" font-family="Helvetica,sans-Serif" font-weight="bold" font-size="11.00" fill="#000000">country_area</text>
<text text-anchor="start" x="107.5219" y="-521.8" font-family="Helvetica,sans-Serif" font-size="11.00" fill="#000000">[table]</text>
<polygon fill="none" stroke="#000000" points="8,-491.7 8,-513.7 142,-513.7 142,-491.7 8,-491.7"/>
<image xlink:href="../../images/primaryKeys.png" width="11px" height="12px" preserveAspectRatio="xMinYMin meet" x="13" y="-508.7"/>
<text text-anchor="start" x="37" y="-498.8" font-family="Helvetica,sans-Serif" font-size="11.00" fill="#000000">area</text>
<polygon fill="#ffffff" stroke="transparent" points="8,-472.7 8,-491.7 142,-491.7 142,-472.7 8,-472.7"/>
<polygon fill="none" stroke="#000000" points="8,-472.7 8,-491.7 142,-491.7 142,-472.7 8,-472.7"/>
<polygon fill="#ffffff" stroke="transparent" points="9,-473.7 9,-490.7 36,-490.7 36,-473.7 9,-473.7"/>
<text text-anchor="start" x="11" y="-478.8" font-family="Helvetica,sans-Serif" font-size="11.00" fill="#000000"> &#160;</text>
<polygon fill="#ffffff" stroke="transparent" points="36,-473.7 36,-490.7 100,-490.7 100,-473.7 36,-473.7"/>
<text text-anchor="start" x="45.6903" y="-478.8" font-family="Helvetica,sans-Serif" font-size="11.00" fill="#000000">258 rows</text>
<polygon fill="#ffffff" stroke="transparent" points="100,-473.7 100,-490.7 141,-490.7 141,-473.7 100,-473.7"/>
<text text-anchor="start" x="117.2904" y="-478.8" font-family="Helvetica,sans-Serif" font-size="11.00" fill="#000000">11 &gt;</text>
<polygon fill="#000000" stroke="#000000" points="36,-473.7 36,-490.7 36,-490.7 36,-473.7 36,-473.7"/>
<polygon fill="#000000" stroke="#000000" points="100,-473.7 100,-490.7 100,-490.7 100,-473.7 100,-473.7"/>
</a>
</g>
</g>
<!-- area_alias&#45;&gt;country_area -->
<g id="edge1" class="edge">
<title>area_alias:w&#45;&gt;country_area:e</title>
<path fill="none" stroke="#000000" stroke-dasharray="5,2" d="M198.4723,-747.2608C190.7028,-740.6148 189.2126,-727.3896 183,-713.7 163.2605,-670.2037 189.7659,-502.7 142,-502.7"/>
<polygon fill="#000000" stroke="#000000" points="204.8728,-749.2862 211.4138,-755.1322 208.6864,-750.4931 212.5,-751.7 212.5,-751.7 212.5,-751.7 208.6864,-750.4931 213.5862,-748.2678 204.8728,-749.2862 204.8728,-749.2862"/>
<ellipse fill="none" stroke="#000000" cx="201.8219" cy="-748.3207" rx="3.2" ry="3.2"/>
</g>
<!-- area_attribute -->
<g id="node3" class="node">
<title>area_attribute</title>
<g id="a_node3"><a xlink:href="../../tables/area_attribute.html" xlink:title="area_attribute" target="_top">
<polygon fill="#ffffff" stroke="transparent" points="197,-642.2 197,-703.2 340,-703.2 340,-642.2 197,-642.2"/>
<polygon fill="#f5f5f5" stroke="transparent" points="197.5,-679.7 197.5,-702.7 340.5,-702.7 340.5,-679.7 197.5,-679.7"/>
<polygon fill="none" stroke="#000000" points="197.5,-679.7 197.5,-702.7 340.5,-702.7 340.5,-679.7 197.5,-679.7"/>
<text text-anchor="start" x="202.5" y="-688.3" font-family="Helvetica,sans-Serif" font-weight="bold" font-size="11.00" fill="#000000">area_attribute</text>
<text text-anchor="start" x="306.0219" y="-687.8" font-family="Helvetica,sans-Serif" font-size="11.00" fill="#000000">[table]</text>
<polygon fill="none" stroke="#000000" points="197.5,-660.7 197.5,-679.7 340.5,-679.7 340.5,-660.7 197.5,-660.7"/>
<text text-anchor="start" x="200.5" y="-666.8" font-family="Helvetica,sans-Serif" font-size="11.00" fill="#000000">...</text>
<polygon fill="#ffffff" stroke="transparent" points="197.5,-641.7 197.5,-660.7 340.5,-660.7 340.5,-641.7 197.5,-641.7"/>
<polygon fill="none" stroke="#000000" points="197.5,-641.7 197.5,-660.7 340.5,-660.7 340.5,-641.7 197.5,-641.7"/>
<polygon fill="#ffffff" stroke="transparent" points="198.5,-642.7 198.5,-659.7 243.5,-659.7 243.5,-642.7 198.5,-642.7"/>
<text text-anchor="start" x="200.5" y="-647.8" font-family="Helvetica,sans-Serif" font-size="11.00" fill="#000000">&lt; 1</text>
<polygon fill="#ffffff" stroke="transparent" points="243.5,-642.7 243.5,-659.7 304.5,-659.7 304.5,-642.7 243.5,-642.7"/>
<text text-anchor="start" x="257.8053" y="-647.8" font-family="Helvetica,sans-Serif" font-size="11.00" fill="#000000">0 rows</text>
<polygon fill="#ffffff" stroke="transparent" points="304.5,-642.7 304.5,-659.7 339.5,-659.7 339.5,-642.7 304.5,-642.7"/>
<text text-anchor="start" x="331.3862" y="-647.8" font-family="Helvetica,sans-Serif" font-size="11.00" fill="#000000"> &#160;</text>
<polygon fill="#000000" stroke="#000000" points="243.5,-642.7 243.5,-659.7 243.5,-659.7 243.5,-642.7 243.5,-642.7"/>
<polygon fill="#000000" stroke="#000000" points="304.5,-642.7 304.5,-659.7 304.5,-659.7 304.5,-642.7 304.5,-642.7"/>
</a>
</g>
</g>
<!-- area_attribute&#45;&gt;country_area -->
<g id="edge2" class="edge">
<title>area_attribute:w&#45;&gt;country_area:e</title>
<path fill="none" stroke="#000000" stroke-dasharray="5,2" d="M183.2149,-667.2097C132.9379,-646.4354 214.5615,-502.7 142,-502.7"/>
<polygon fill="#000000" stroke="#000000" points="189.6189,-668.326 196.8817,-673.2465 193.5594,-669.013 197.5,-669.7 197.5,-669.7 197.5,-669.7 193.5594,-669.013 198.1183,-666.1535 189.6189,-668.326 189.6189,-668.326"/>
<ellipse fill="none" stroke="#000000" cx="186.4664" cy="-667.7764" rx="3.2" ry="3.2"/>
</g>
<!-- artist -->
<g id="node4" class="node">
<title>artist</title>
<g id="a_node4"><a xlink:href="../../tables/artist.html" xlink:title="artist" target="_top">
<polygon fill="#ffffff" stroke="transparent" points="213.5,-560.2 213.5,-621.2 323.5,-621.2 323.5,-560.2 213.5,-560.2"/>
<polygon fill="#f5f5f5" stroke="transparent" points="213.5,-597.7 213.5,-620.7 323.5,-620.7 323.5,-597.7 213.5,-597.7"/>
<polygon fill="none" stroke="#000000" points="213.5,-597.7 213.5,-620.7 323.5,-620.7 323.5,-597.7 213.5,-597.7"/>
<text text-anchor="start" x="218.5" y="-606.3" font-family="Helvetica,sans-Serif" font-weight="bold" font-size="11.00" fill="#000000">artist</text>
<text text-anchor="start" x="288.5437" y="-605.8" font-family="Helvetica,sans-Serif" font-size="11.00" fill="#000000">[table]</text>
<polygon fill="none" stroke="#000000" points="213.5,-578.7 213.5,-597.7 323.5,-597.7 323.5,-578.7 213.5,-578.7"/>
<text text-anchor="start" x="216.5" y="-584.8" font-family="Helvetica,sans-Serif" font-size="11.00" fill="#000000">...</text>
<polygon fill="#ffffff" stroke="transparent" points="213.5,-559.7 213.5,-578.7 323.5,-578.7 323.5,-559.7 213.5,-559.7"/>
<polygon fill="none" stroke="#000000" points="213.5,-559.7 213.5,-578.7 323.5,-578.7 323.5,-559.7 213.5,-559.7"/>
<polygon fill="#ffffff" stroke="transparent" points="214.5,-560.7 214.5,-577.7 233.5,-577.7 233.5,-560.7 214.5,-560.7"/>
<text text-anchor="start" x="216.2027" y="-565.8" font-family="Helvetica,sans-Serif" font-size="11.00" fill="#000000">&lt; 3</text>
<polygon fill="#ffffff" stroke="transparent" points="233.5,-560.7 233.5,-577.7 312.5,-577.7 312.5,-560.7 233.5,-560.7"/>
<text text-anchor="start" x="235.4037" y="-565.8" font-family="Helvetica,sans-Serif" font-size="11.00" fill="#000000">2,863,762 rows</text>
<polygon fill="#ffffff" stroke="transparent" points="312.5,-560.7 312.5,-577.7 322.5,-577.7 322.5,-560.7 312.5,-560.7"/>
<text text-anchor="start" x="314.4431" y="-565.8" font-family="Helvetica,sans-Serif" font-size="11.00" fill="#000000"> &#160;</text>
<polygon fill="#000000" stroke="#000000" points="233.5,-560.7 233.5,-577.7 233.5,-577.7 233.5,-560.7 233.5,-560.7"/>
<polygon fill="#000000" stroke="#000000" points="312.5,-560.7 312.5,-577.7 312.5,-577.7 312.5,-560.7 312.5,-560.7"/>
</a>
</g>
</g>
<!-- artist&#45;&gt;country_area -->
<g id="edge3" class="edge">
<title>artist:w&#45;&gt;country_area:e</title>
<path fill="none" stroke="#000000" stroke-dasharray="5,2" d="M200.2567,-581.3835C169.0263,-557.8604 186.1593,-491.0711 142,-502.7"/>
<polygon fill="#000000" stroke="#000000" points="206.2793,-584.256 211.9502,-590.9493 209.8896,-585.978 213.5,-587.7 213.5,-587.7 213.5,-587.7 209.8896,-585.978 215.0498,-584.4507 206.2793,-584.256 206.2793,-584.256"/>
<ellipse fill="none" stroke="#000000" cx="203.391" cy="-582.8783" rx="3.2" ry="3.2"/>
</g>
<!-- artist&#45;&gt;country_area -->
<g id="edge4" class="edge">
<title>artist:w&#45;&gt;country_area:e</title>
<path fill="none" stroke="#000000" stroke-dasharray="5,2" d="M199.054,-584.4717C169.4647,-568.9454 185.5808,-502.7 142,-502.7"/>
<polygon fill="#000000" stroke="#000000" points="205.6926,-585.9552 212.7148,-591.2133 209.5963,-586.8276 213.5,-587.7 213.5,-587.7 213.5,-587.7 209.5963,-586.8276 214.2852,-584.1867 205.6926,-585.9552 205.6926,-585.9552"/>
<ellipse fill="none" stroke="#000000" cx="202.5696" cy="-585.2573" rx="3.2" ry="3.2"/>
</g>
<!-- artist&#45;&gt;country_area -->
<g id="edge5" class="edge">
<title>artist:w&#45;&gt;country_area:e</title>
<path fill="none" stroke="#000000" stroke-dasharray="5,2" d="M199.054,-588.5064C169.4647,-581.7669 185.5808,-514.1766 142,-502.7"/>
<polygon fill="#000000" stroke="#000000" points="205.5124,-588.1459 213.7007,-591.2944 209.5062,-587.923 213.5,-587.7 213.5,-587.7 213.5,-587.7 209.5062,-587.923 213.2993,-584.1056 205.5124,-588.1459 205.5124,-588.1459"/>
<ellipse fill="none" stroke="#000000" cx="202.3174" cy="-588.3243" rx="3.2" ry="3.2"/>
</g>
<!-- artist_release_nonva -->
<g id="node5" class="node">
<title>artist_release_nonva</title>
<g id="a_node5"><a xlink:href="../../tables/artist_release_nonva.html" xlink:title="artist_release_nonva" target="_top">
<polygon fill="#ffffff" stroke="transparent" points="395,-484.2 395,-699.2 585,-699.2 585,-484.2 395,-484.2"/>
<polygon fill="#f5f5f5" stroke="transparent" points="395,-675.7 395,-698.7 585,-698.7 585,-675.7 395,-675.7"/>
<polygon fill="none" stroke="#000000" points="395,-675.7 395,-698.7 585,-698.7 585,-675.7 395,-675.7"/>
<text text-anchor="start" x="400" y="-684.3" font-family="Helvetica,sans-Serif" font-weight="bold" font-size="11.00" fill="#000000">artist_release_nonva</text>
<text text-anchor="start" x="550.5219" y="-683.8" font-family="Helvetica,sans-Serif" font-size="11.00" fill="#000000">[table]</text>
<polygon fill="#ffffff" stroke="transparent" points="395,-653.7 395,-675.7 585,-675.7 585,-653.7 395,-653.7"/>
<polygon fill="none" stroke="#000000" points="395,-653.7 395,-675.7 585,-675.7 585,-653.7 395,-653.7"/>
<text text-anchor="start" x="424" y="-660.8" font-family="Helvetica,sans-Serif" font-size="11.00" fill="#000000">artist</text>
<polygon fill="#ffffff" stroke="transparent" points="395,-631.7 395,-653.7 585,-653.7 585,-631.7 395,-631.7"/>
<polygon fill="none" stroke="#000000" points="395,-631.7 395,-653.7 585,-653.7 585,-631.7 395,-631.7"/>
<text text-anchor="start" x="424" y="-638.8" font-family="Helvetica,sans-Serif" font-size="11.00" fill="#000000">first_release_date</text>
<polygon fill="#ffffff" stroke="transparent" points="395,-609.7 395,-631.7 585,-631.7 585,-609.7 395,-609.7"/>
<polygon fill="none" stroke="#000000" points="395,-609.7 395,-631.7 585,-631.7 585,-609.7 395,-609.7"/>
<text text-anchor="start" x="424" y="-616.8" font-family="Helvetica,sans-Serif" font-size="11.00" fill="#000000">catalog_numbers</text>
<polygon fill="#ffffff" stroke="transparent" points="395,-587.7 395,-609.7 585,-609.7 585,-587.7 395,-587.7"/>
<polygon fill="none" stroke="#000000" points="395,-587.7 395,-609.7 585,-609.7 585,-587.7 395,-587.7"/>
<image xlink:href="../../images/foreignKeys.png" width="11px" height="12px" preserveAspectRatio="xMinYMin meet" x="400" y="-604.7"/>
<text text-anchor="start" x="424" y="-594.8" font-family="Helvetica,sans-Serif" font-size="11.00" fill="#000000">country_code</text>
<polygon fill="#ffffff" stroke="transparent" points="395,-565.7 395,-587.7 585,-587.7 585,-565.7 395,-565.7"/>
<polygon fill="none" stroke="#000000" points="395,-565.7 395,-587.7 585,-587.7 585,-565.7 395,-565.7"/>
<text text-anchor="start" x="424" y="-572.8" font-family="Helvetica,sans-Serif" font-size="11.00" fill="#000000">barcode</text>
<polygon fill="#ffffff" stroke="transparent" points="395,-543.7 395,-565.7 585,-565.7 585,-543.7 395,-543.7"/>
<polygon fill="none" stroke="#000000" points="395,-543.7 395,-565.7 585,-565.7 585,-543.7 395,-543.7"/>
<text text-anchor="start" x="424" y="-550.8" font-family="Helvetica,sans-Serif" font-size="11.00" fill="#000000">name</text>
<polygon fill="#ffffff" stroke="transparent" points="395,-521.7 395,-543.7 585,-543.7 585,-521.7 395,-521.7"/>
<polygon fill="none" stroke="#000000" points="395,-521.7 395,-543.7 585,-543.7 585,-521.7 395,-521.7"/>
<text text-anchor="start" x="424" y="-528.8" font-family="Helvetica,sans-Serif" font-size="11.00" fill="#000000">release</text>
<polygon fill="none" stroke="#000000" points="395,-502.7 395,-521.7 585,-521.7 585,-502.7 395,-502.7"/>
<text text-anchor="start" x="398" y="-508.8" font-family="Helvetica,sans-Serif" font-size="11.00" fill="#000000">...</text>
<polygon fill="#ffffff" stroke="transparent" points="395,-483.7 395,-502.7 585,-502.7 585,-483.7 395,-483.7"/>
<polygon fill="none" stroke="#000000" points="395,-483.7 395,-502.7 585,-502.7 585,-483.7 395,-483.7"/>
<polygon fill="#ffffff" stroke="transparent" points="396,-484.7 396,-501.7 456,-501.7 456,-484.7 396,-484.7"/>
<text text-anchor="start" x="398" y="-489.8" font-family="Helvetica,sans-Serif" font-size="11.00" fill="#000000">&lt; 1</text>
<polygon fill="#ffffff" stroke="transparent" points="456,-484.7 456,-501.7 533,-501.7 533,-484.7 456,-484.7"/>
<text text-anchor="start" x="478.3053" y="-489.8" font-family="Helvetica,sans-Serif" font-size="11.00" fill="#000000">0 rows</text>
<polygon fill="#ffffff" stroke="transparent" points="533,-484.7 533,-501.7 584,-501.7 584,-484.7 533,-484.7"/>
<text text-anchor="start" x="575.8862" y="-489.8" font-family="Helvetica,sans-Serif" font-size="11.00" fill="#000000"> &#160;</text>
<polygon fill="#000000" stroke="#000000" points="456,-484.7 456,-501.7 456,-501.7 456,-484.7 456,-484.7"/>
<polygon fill="#000000" stroke="#000000" points="533,-484.7 533,-501.7 533,-501.7 533,-484.7 533,-484.7"/>
</a>
</g>
</g>
<!-- iso_3166_1 -->
<g id="node6" class="node">
<title>iso_3166_1</title>
<g id="a_node6"><a xlink:href="../../tables/iso_3166_1.html" xlink:title="iso_3166_1" target="_top">
<polygon fill="#ffffff" stroke="transparent" points="191,-448.7 191,-538.7 346,-538.7 346,-448.7 191,-448.7"/>
<polygon fill="#f5f5f5" stroke="transparent" points="193.5,-513.7 193.5,-536.7 344.5,-536.7 344.5,-513.7 193.5,-513.7"/>
<polygon fill="none" stroke="#000000" points="193.5,-513.7 193.5,-536.7 344.5,-536.7 344.5,-513.7 193.5,-513.7"/>
<text text-anchor="start" x="198.5" y="-522.3" font-family="Helvetica,sans-Serif" font-weight="bold" font-size="11.00" fill="#000000">iso_3166_1</text>
<text text-anchor="start" x="309.5437" y="-521.8" font-family="Helvetica,sans-Serif" font-size="11.00" fill="#000000">[table]</text>
<polygon fill="#ffffff" stroke="transparent" points="193.5,-491.7 193.5,-513.7 293.5,-513.7 293.5,-491.7 193.5,-491.7"/>
<polygon fill="none" stroke="#000000" points="193.5,-491.7 193.5,-513.7 293.5,-513.7 293.5,-491.7 193.5,-491.7"/>
<image xlink:href="../../images/foreignKeys.png" width="11px" height="12px" preserveAspectRatio="xMinYMin meet" x="198.5" y="-508.7"/>
<text text-anchor="start" x="213.5" y="-498.8" font-family="Helvetica,sans-Serif" font-size="11.00" fill="#000000">area</text>
<polygon fill="none" stroke="#000000" points="293.5,-491.7 293.5,-513.7 344.5,-513.7 344.5,-491.7 293.5,-491.7"/>
<text text-anchor="start" x="296.5" y="-499.4" font-family="Helvetica,sans-Serif" font-size="11.00" fill="#000000">int4[10]</text>
<polygon fill="none" stroke="#000000" points="193.5,-469.7 193.5,-491.7 293.5,-491.7 293.5,-469.7 193.5,-469.7"/>
<image xlink:href="../../images/primaryKeys.png" width="11px" height="12px" preserveAspectRatio="xMinYMin meet" x="198.5" y="-486.7"/>
<text text-anchor="start" x="213.5" y="-476.8" font-family="Helvetica,sans-Serif" font-size="11.00" fill="#000000">code</text>
<polygon fill="none" stroke="#000000" points="293.5,-469.7 293.5,-491.7 344.5,-491.7 344.5,-469.7 293.5,-469.7"/>
<text text-anchor="start" x="296.0749" y="-477.4" font-family="Helvetica,sans-Serif" font-size="11.00" fill="#000000">bpchar[2]</text>
<polygon fill="#ffffff" stroke="transparent" points="193.5,-450.7 193.5,-469.7 344.5,-469.7 344.5,-450.7 193.5,-450.7"/>
<polygon fill="none" stroke="#000000" points="193.5,-450.7 193.5,-469.7 344.5,-469.7 344.5,-450.7 193.5,-450.7"/>
<polygon fill="#ffffff" stroke="transparent" points="194.5,-451.7 194.5,-468.7 234.5,-468.7 234.5,-451.7 194.5,-451.7"/>
<text text-anchor="start" x="196.5" y="-456.8" font-family="Helvetica,sans-Serif" font-size="11.00" fill="#000000">&lt; 1</text>
<polygon fill="#ffffff" stroke="transparent" points="234.5,-451.7 234.5,-468.7 303.5,-468.7 303.5,-451.7 234.5,-451.7"/>
<text text-anchor="start" x="246.6904" y="-456.8" font-family="Helvetica,sans-Serif" font-size="11.00" fill="#000000">258 rows</text>
<polygon fill="#ffffff" stroke="transparent" points="303.5,-451.7 303.5,-468.7 343.5,-468.7 343.5,-451.7 303.5,-451.7"/>
<text text-anchor="start" x="325.9053" y="-456.8" font-family="Helvetica,sans-Serif" font-size="11.00" fill="#000000">2 &gt;</text>
<polygon fill="#000000" stroke="#000000" points="234.5,-451.7 234.5,-468.7 234.5,-468.7 234.5,-451.7 234.5,-451.7"/>
<polygon fill="#000000" stroke="#000000" points="303.5,-451.7 303.5,-468.7 303.5,-468.7 303.5,-451.7 303.5,-451.7"/>
<polygon fill="none" stroke="#000000" stroke-width="2" points="192,-449.7 192,-537.7 345,-537.7 345,-449.7 192,-449.7"/>
</a>
</g>
</g>
<!-- artist_release_nonva&#45;&gt;iso_3166_1 -->
<g id="edge6" class="edge">
<title>artist_release_nonva:w&#45;&gt;iso_3166_1:e</title>
<path fill="none" stroke="#000000" stroke-dasharray="5,2" d="M380.6932,-595.0391C350.0264,-575.122 395.5289,-480.7 344.5,-480.7"/>
<polygon fill="#000000" stroke="#000000" points="387.2497,-596.7168 394.1075,-602.1876 391.1249,-597.7084 395,-598.7 395,-598.7 395,-598.7 391.1249,-597.7084 395.8925,-595.2124 387.2497,-596.7168 387.2497,-596.7168"/>
<ellipse fill="none" stroke="#000000" cx="384.1496" cy="-595.9235" rx="3.2" ry="3.2"/>
</g>
<!-- iso_3166_1&#45;&gt;country_area -->
<g id="edge9" class="edge">
<title>iso_3166_1:w&#45;&gt;country_area:e</title>
<path fill="none" stroke="#000000" stroke-dasharray="5,2" d="M179.0156,-502.7C166.6771,-502.7 159.1667,-502.7 142,-502.7"/>
<polygon fill="#000000" stroke="#000000" points="185.5,-502.7001 193.5,-506.3 189.5,-502.7 193.5,-502.7 193.5,-502.7 193.5,-502.7 189.5,-502.7 193.5,-499.1 185.5,-502.7001 185.5,-502.7001"/>
<ellipse fill="none" stroke="#000000" cx="182.3" cy="-502.7001" rx="3.2" ry="3.2"/>
</g>
<!-- artist_release_va -->
<g id="node7" class="node">
<title>artist_release_va</title>
<g id="a_node7"><a xlink:href="../../tables/artist_release_va.html" xlink:title="artist_release_va" target="_top">
<polygon fill="#ffffff" stroke="transparent" points="409,-248.2 409,-463.2 571,-463.2 571,-248.2 409,-248.2"/>
<polygon fill="#f5f5f5" stroke="transparent" points="409,-439.7 409,-462.7 571,-462.7 571,-439.7 409,-439.7"/>
<polygon fill="none" stroke="#000000" points="409,-439.7 409,-462.7 571,-462.7 571,-439.7 409,-439.7"/>
<text text-anchor="start" x="414" y="-448.3" font-family="Helvetica,sans-Serif" font-weight="bold" font-size="11.00" fill="#000000">artist_release_va</text>
<text text-anchor="start" x="536.5219" y="-447.8" font-family="Helvetica,sans-Serif" font-size="11.00" fill="#000000">[table]</text>
<polygon fill="#ffffff" stroke="transparent" points="409,-417.7 409,-439.7 571,-439.7 571,-417.7 409,-417.7"/>
<polygon fill="none" stroke="#000000" points="409,-417.7 409,-439.7 571,-439.7 571,-417.7 409,-417.7"/>
<text text-anchor="start" x="435" y="-424.8" font-family="Helvetica,sans-Serif" font-size="11.00" fill="#000000">artist</text>
<polygon fill="#ffffff" stroke="transparent" points="409,-395.7 409,-417.7 571,-417.7 571,-395.7 409,-395.7"/>
<polygon fill="none" stroke="#000000" points="409,-395.7 409,-417.7 571,-417.7 571,-395.7 409,-395.7"/>
<text text-anchor="start" x="435" y="-402.8" font-family="Helvetica,sans-Serif" font-size="11.00" fill="#000000">first_release_date</text>
<polygon fill="#ffffff" stroke="transparent" points="409,-373.7 409,-395.7 571,-395.7 571,-373.7 409,-373.7"/>
<polygon fill="none" stroke="#000000" points="409,-373.7 409,-395.7 571,-395.7 571,-373.7 409,-373.7"/>
<text text-anchor="start" x="435" y="-380.8" font-family="Helvetica,sans-Serif" font-size="11.00" fill="#000000">catalog_numbers</text>
<polygon fill="#ffffff" stroke="transparent" points="409,-351.7 409,-373.7 571,-373.7 571,-351.7 409,-351.7"/>
<polygon fill="none" stroke="#000000" points="409,-351.7 409,-373.7 571,-373.7 571,-351.7 409,-351.7"/>
<image xlink:href="../../images/foreignKeys.png" width="11px" height="12px" preserveAspectRatio="xMinYMin meet" x="414" y="-368.7"/>
<text text-anchor="start" x="435" y="-358.8" font-family="Helvetica,sans-Serif" font-size="11.00" fill="#000000">country_code</text>
<polygon fill="#ffffff" stroke="transparent" points="409,-329.7 409,-351.7 571,-351.7 571,-329.7 409,-329.7"/>
<polygon fill="none" stroke="#000000" points="409,-329.7 409,-351.7 571,-351.7 571,-329.7 409,-329.7"/>
<text text-anchor="start" x="435" y="-336.8" font-family="Helvetica,sans-Serif" font-size="11.00" fill="#000000">barcode</text>
<polygon fill="#ffffff" stroke="transparent" points="409,-307.7 409,-329.7 571,-329.7 571,-307.7 409,-307.7"/>
<polygon fill="none" stroke="#000000" points="409,-307.7 409,-329.7 571,-329.7 571,-307.7 409,-307.7"/>
<text text-anchor="start" x="435" y="-314.8" font-family="Helvetica,sans-Serif" font-size="11.00" fill="#000000">name</text>
<polygon fill="#ffffff" stroke="transparent" points="409,-285.7 409,-307.7 571,-307.7 571,-285.7 409,-285.7"/>
<polygon fill="none" stroke="#000000" points="409,-285.7 409,-307.7 571,-307.7 571,-285.7 409,-285.7"/>
<text text-anchor="start" x="435" y="-292.8" font-family="Helvetica,sans-Serif" font-size="11.00" fill="#000000">release</text>
<polygon fill="none" stroke="#000000" points="409,-266.7 409,-285.7 571,-285.7 571,-266.7 409,-266.7"/>
<text text-anchor="start" x="412" y="-272.8" font-family="Helvetica,sans-Serif" font-size="11.00" fill="#000000">...</text>
<polygon fill="#ffffff" stroke="transparent" points="409,-247.7 409,-266.7 571,-266.7 571,-247.7 409,-247.7"/>
<polygon fill="none" stroke="#000000" points="409,-247.7 409,-266.7 571,-266.7 571,-247.7 409,-247.7"/>
<polygon fill="#ffffff" stroke="transparent" points="410,-248.7 410,-265.7 461,-265.7 461,-248.7 410,-248.7"/>
<text text-anchor="start" x="412" y="-253.8" font-family="Helvetica,sans-Serif" font-size="11.00" fill="#000000">&lt; 1</text>
<polygon fill="#ffffff" stroke="transparent" points="461,-248.7 461,-265.7 529,-265.7 529,-248.7 461,-248.7"/>
<text text-anchor="start" x="478.8053" y="-253.8" font-family="Helvetica,sans-Serif" font-size="11.00" fill="#000000">0 rows</text>
<polygon fill="#ffffff" stroke="transparent" points="529,-248.7 529,-265.7 570,-265.7 570,-248.7 529,-248.7"/>
<text text-anchor="start" x="561.8862" y="-253.8" font-family="Helvetica,sans-Serif" font-size="11.00" fill="#000000"> &#160;</text>
<polygon fill="#000000" stroke="#000000" points="461,-248.7 461,-265.7 461,-265.7 461,-248.7 461,-248.7"/>
<polygon fill="#000000" stroke="#000000" points="529,-248.7 529,-265.7 529,-265.7 529,-248.7 529,-248.7"/>
</a>
</g>
</g>
<!-- artist_release_va&#45;&gt;iso_3166_1 -->
<g id="edge7" class="edge">
<title>artist_release_va:w&#45;&gt;iso_3166_1:e</title>
<path fill="none" stroke="#000000" stroke-dasharray="5,2" d="M394.5606,-365.8562C358.8864,-384.6215 398.4312,-480.7 344.5,-480.7"/>
<polygon fill="#000000" stroke="#000000" points="401.1845,-364.4084 409.7688,-366.217 405.0923,-363.5542 409,-362.7 409,-362.7 409,-362.7 405.0923,-363.5542 408.2312,-359.183 401.1845,-364.4084 401.1845,-364.4084"/>
<ellipse fill="none" stroke="#000000" cx="398.0583" cy="-365.0917" rx="3.2" ry="3.2"/>
</g>
<!-- editor -->
<g id="node8" class="node">
<title>editor</title>
<g id="a_node8"><a xlink:href="../../tables/editor.html" xlink:title="editor" target="_top">
<polygon fill="#ffffff" stroke="transparent" points="227,-366.2 227,-427.2 310,-427.2 310,-366.2 227,-366.2"/>
<polygon fill="#f5f5f5" stroke="transparent" points="227.5,-403.7 227.5,-426.7 310.5,-426.7 310.5,-403.7 227.5,-403.7"/>
<polygon fill="none" stroke="#000000" points="227.5,-403.7 227.5,-426.7 310.5,-426.7 310.5,-403.7 227.5,-403.7"/>
<text text-anchor="start" x="232.5" y="-412.3" font-family="Helvetica,sans-Serif" font-weight="bold" font-size="11.00" fill="#000000">editor</text>
<text text-anchor="start" x="276.0219" y="-411.8" font-family="Helvetica,sans-Serif" font-size="11.00" fill="#000000">[table]</text>
<polygon fill="none" stroke="#000000" points="227.5,-384.7 227.5,-403.7 310.5,-403.7 310.5,-384.7 227.5,-384.7"/>
<text text-anchor="start" x="230.5" y="-390.8" font-family="Helvetica,sans-Serif" font-size="11.00" fill="#000000">...</text>
<polygon fill="#ffffff" stroke="transparent" points="227.5,-365.7 227.5,-384.7 310.5,-384.7 310.5,-365.7 227.5,-365.7"/>
<polygon fill="none" stroke="#000000" points="227.5,-365.7 227.5,-384.7 310.5,-384.7 310.5,-365.7 227.5,-365.7"/>
<polygon fill="#ffffff" stroke="transparent" points="228.5,-366.7 228.5,-383.7 253.5,-383.7 253.5,-366.7 228.5,-366.7"/>
<text text-anchor="start" x="230.5" y="-371.8" font-family="Helvetica,sans-Serif" font-size="11.00" fill="#000000">&lt; 1</text>
<polygon fill="#ffffff" stroke="transparent" points="253.5,-366.7 253.5,-383.7 294.5,-383.7 294.5,-366.7 253.5,-366.7"/>
<text text-anchor="start" x="257.8053" y="-371.8" font-family="Helvetica,sans-Serif" font-size="11.00" fill="#000000">0 rows</text>
<polygon fill="#ffffff" stroke="transparent" points="294.5,-366.7 294.5,-383.7 309.5,-383.7 309.5,-366.7 294.5,-366.7"/>
<text text-anchor="start" x="301.3862" y="-371.8" font-family="Helvetica,sans-Serif" font-size="11.00" fill="#000000"> &#160;</text>
<polygon fill="#000000" stroke="#000000" points="253.5,-366.7 253.5,-383.7 253.5,-383.7 253.5,-366.7 253.5,-366.7"/>
<polygon fill="#000000" stroke="#000000" points="294.5,-366.7 294.5,-383.7 294.5,-383.7 294.5,-366.7 294.5,-366.7"/>
</a>
</g>
</g>
<!-- editor&#45;&gt;country_area -->
<g id="edge8" class="edge">
<title>editor:w&#45;&gt;country_area:e</title>
<path fill="none" stroke="#000000" stroke-dasharray="5,2" d="M213.1638,-396.5488C199.0433,-403.3709 196.8655,-421.3697 183,-438.7 161.8962,-465.0774 175.7807,-502.7 142,-502.7"/>
<polygon fill="#000000" stroke="#000000" points="219.6534,-395.2592 228.2017,-397.231 223.5767,-394.4796 227.5,-393.7 227.5,-393.7 227.5,-393.7 223.5767,-394.4796 226.7983,-390.169 219.6534,-395.2592 219.6534,-395.2592"/>
<ellipse fill="none" stroke="#000000" cx="216.5148" cy="-395.8829" rx="3.2" ry="3.2"/>
</g>
<!-- iso_3166_2 -->
<g id="node9" class="node">
<title>iso_3166_2</title>
<g id="a_node9"><a xlink:href="../../tables/iso_3166_2.html" xlink:title="iso_3166_2" target="_top">
<polygon fill="#ffffff" stroke="transparent" points="209.5,-284.2 209.5,-345.2 327.5,-345.2 327.5,-284.2 209.5,-284.2"/>
<polygon fill="#f5f5f5" stroke="transparent" points="209.5,-321.7 209.5,-344.7 327.5,-344.7 327.5,-321.7 209.5,-321.7"/>
<polygon fill="none" stroke="#000000" points="209.5,-321.7 209.5,-344.7 327.5,-344.7 327.5,-321.7 209.5,-321.7"/>
<text text-anchor="start" x="214.5" y="-330.3" font-family="Helvetica,sans-Serif" font-weight="bold" font-size="11.00" fill="#000000">iso_3166_2</text>
<text text-anchor="start" x="293.0219" y="-329.8" font-family="Helvetica,sans-Serif" font-size="11.00" fill="#000000">[table]</text>
<polygon fill="none" stroke="#000000" points="209.5,-302.7 209.5,-321.7 327.5,-321.7 327.5,-302.7 209.5,-302.7"/>
<text text-anchor="start" x="212.5" y="-308.8" font-family="Helvetica,sans-Serif" font-size="11.00" fill="#000000">...</text>
<polygon fill="#ffffff" stroke="transparent" points="209.5,-283.7 209.5,-302.7 327.5,-302.7 327.5,-283.7 209.5,-283.7"/>
<polygon fill="none" stroke="#000000" points="209.5,-283.7 209.5,-302.7 327.5,-302.7 327.5,-283.7 209.5,-283.7"/>
<polygon fill="#ffffff" stroke="transparent" points="210.5,-284.7 210.5,-301.7 239.5,-301.7 239.5,-284.7 210.5,-284.7"/>
<text text-anchor="start" x="212.5" y="-289.8" font-family="Helvetica,sans-Serif" font-size="11.00" fill="#000000">&lt; 1</text>
<polygon fill="#ffffff" stroke="transparent" points="239.5,-284.7 239.5,-301.7 306.5,-301.7 306.5,-284.7 239.5,-284.7"/>
<text text-anchor="start" x="246.1045" y="-289.8" font-family="Helvetica,sans-Serif" font-size="11.00" fill="#000000">4,839 rows</text>
<polygon fill="#ffffff" stroke="transparent" points="306.5,-284.7 306.5,-301.7 326.5,-301.7 326.5,-284.7 306.5,-284.7"/>
<text text-anchor="start" x="318.3862" y="-289.8" font-family="Helvetica,sans-Serif" font-size="11.00" fill="#000000"> &#160;</text>
<polygon fill="#000000" stroke="#000000" points="239.5,-284.7 239.5,-301.7 239.5,-301.7 239.5,-284.7 239.5,-284.7"/>
<polygon fill="#000000" stroke="#000000" points="306.5,-284.7 306.5,-301.7 306.5,-301.7 306.5,-284.7 306.5,-284.7"/>
</a>
</g>
</g>
<!-- iso_3166_2&#45;&gt;country_area -->
<g id="edge10" class="edge">
<title>iso_3166_2:w&#45;&gt;country_area:e</title>
<path fill="none" stroke="#000000" stroke-dasharray="5,2" d="M194.8939,-313.845C132.7456,-334.8289 226.4069,-502.7 142,-502.7"/>
<polygon fill="#000000" stroke="#000000" points="201.5849,-312.8624 210.0231,-315.2618 205.5424,-312.2812 209.5,-311.7 209.5,-311.7 209.5,-311.7 205.5424,-312.2812 208.9769,-308.1382 201.5849,-312.8624 201.5849,-312.8624"/>
<ellipse fill="none" stroke="#000000" cx="198.4189" cy="-313.3274" rx="3.2" ry="3.2"/>
</g>
<!-- iso_3166_3 -->
<g id="node10" class="node">
<title>iso_3166_3</title>
<g id="a_node10"><a xlink:href="../../tables/iso_3166_3.html" xlink:title="iso_3166_3" target="_top">
<polygon fill="#ffffff" stroke="transparent" points="209.5,-202.2 209.5,-263.2 327.5,-263.2 327.5,-202.2 209.5,-202.2"/>
<polygon fill="#f5f5f5" stroke="transparent" points="209.5,-239.7 209.5,-262.7 327.5,-262.7 327.5,-239.7 209.5,-239.7"/>
<polygon fill="none" stroke="#000000" points="209.5,-239.7 209.5,-262.7 327.5,-262.7 327.5,-239.7 209.5,-239.7"/>
<text text-anchor="start" x="214.5" y="-248.3" font-family="Helvetica,sans-Serif" font-weight="bold" font-size="11.00" fill="#000000">iso_3166_3</text>
<text text-anchor="start" x="293.0219" y="-247.8" font-family="Helvetica,sans-Serif" font-size="11.00" fill="#000000">[table]</text>
<polygon fill="none" stroke="#000000" points="209.5,-220.7 209.5,-239.7 327.5,-239.7 327.5,-220.7 209.5,-220.7"/>
<text text-anchor="start" x="212.5" y="-226.8" font-family="Helvetica,sans-Serif" font-size="11.00" fill="#000000">...</text>
<polygon fill="#ffffff" stroke="transparent" points="209.5,-201.7 209.5,-220.7 327.5,-220.7 327.5,-201.7 209.5,-201.7"/>
<polygon fill="none" stroke="#000000" points="209.5,-201.7 209.5,-220.7 327.5,-220.7 327.5,-201.7 209.5,-201.7"/>
<polygon fill="#ffffff" stroke="transparent" points="210.5,-202.7 210.5,-219.7 243.5,-219.7 243.5,-202.7 210.5,-202.7"/>
<text text-anchor="start" x="212.5" y="-207.8" font-family="Helvetica,sans-Serif" font-size="11.00" fill="#000000">&lt; 1</text>
<polygon fill="#ffffff" stroke="transparent" points="243.5,-202.7 243.5,-219.7 293.5,-219.7 293.5,-202.7 243.5,-202.7"/>
<text text-anchor="start" x="252.3053" y="-207.8" font-family="Helvetica,sans-Serif" font-size="11.00" fill="#000000">9 rows</text>
<polygon fill="#ffffff" stroke="transparent" points="293.5,-202.7 293.5,-219.7 326.5,-219.7 326.5,-202.7 293.5,-202.7"/>
<text text-anchor="start" x="308.9053" y="-207.8" font-family="Helvetica,sans-Serif" font-size="11.00" fill="#000000">1 &gt;</text>
<polygon fill="#000000" stroke="#000000" points="243.5,-202.7 243.5,-219.7 243.5,-219.7 243.5,-202.7 243.5,-202.7"/>
<polygon fill="#000000" stroke="#000000" points="293.5,-202.7 293.5,-219.7 293.5,-219.7 293.5,-202.7 293.5,-202.7"/>
</a>
</g>
</g>
<!-- iso_3166_3&#45;&gt;country_area -->
<g id="edge11" class="edge">
<title>iso_3166_3:w&#45;&gt;country_area:e</title>
<path fill="none" stroke="#000000" stroke-dasharray="5,2" d="M196.1512,-235.1533C155.8162,-273.6299 199.2451,-502.7 142,-502.7"/>
<polygon fill="#000000" stroke="#000000" points="202.0941,-232.7255 210.8615,-233.0326 205.7971,-231.2127 209.5,-229.7 209.5,-229.7 209.5,-229.7 205.7971,-231.2127 208.1385,-226.3674 202.0941,-232.7255 202.0941,-232.7255"/>
<ellipse fill="none" stroke="#000000" cx="199.1318" cy="-233.9357" rx="3.2" ry="3.2"/>
</g>
<!-- label -->
<g id="node11" class="node">
<title>label</title>
<g id="a_node11"><a xlink:href="../../tables/label.html" xlink:title="label" target="_top">
<polygon fill="#ffffff" stroke="transparent" points="218,-120.2 218,-181.2 319,-181.2 319,-120.2 218,-120.2"/>
<polygon fill="#f5f5f5" stroke="transparent" points="218.5,-157.7 218.5,-180.7 319.5,-180.7 319.5,-157.7 218.5,-157.7"/>
<polygon fill="none" stroke="#000000" points="218.5,-157.7 218.5,-180.7 319.5,-180.7 319.5,-157.7 218.5,-157.7"/>
<text text-anchor="start" x="223.5" y="-166.3" font-family="Helvetica,sans-Serif" font-weight="bold" font-size="11.00" fill="#000000">label</text>
<text text-anchor="start" x="284.5437" y="-165.8" font-family="Helvetica,sans-Serif" font-size="11.00" fill="#000000">[table]</text>
<polygon fill="none" stroke="#000000" points="218.5,-138.7 218.5,-157.7 319.5,-157.7 319.5,-138.7 218.5,-138.7"/>
<text text-anchor="start" x="221.5" y="-144.8" font-family="Helvetica,sans-Serif" font-size="11.00" fill="#000000">...</text>
<polygon fill="#ffffff" stroke="transparent" points="218.5,-119.7 218.5,-138.7 319.5,-138.7 319.5,-119.7 218.5,-119.7"/>
<polygon fill="none" stroke="#000000" points="218.5,-119.7 218.5,-138.7 319.5,-138.7 319.5,-119.7 218.5,-119.7"/>
<polygon fill="#ffffff" stroke="transparent" points="219.5,-120.7 219.5,-137.7 238.5,-137.7 238.5,-120.7 219.5,-120.7"/>
<text text-anchor="start" x="221.2027" y="-125.8" font-family="Helvetica,sans-Serif" font-size="11.00" fill="#000000">&lt; 1</text>
<polygon fill="#ffffff" stroke="transparent" points="238.5,-120.7 238.5,-137.7 308.5,-137.7 308.5,-120.7 238.5,-120.7"/>
<text text-anchor="start" x="240.4896" y="-125.8" font-family="Helvetica,sans-Serif" font-size="11.00" fill="#000000">336,181 rows</text>
<polygon fill="#ffffff" stroke="transparent" points="308.5,-120.7 308.5,-137.7 318.5,-137.7 318.5,-120.7 308.5,-120.7"/>
<text text-anchor="start" x="310.4431" y="-125.8" font-family="Helvetica,sans-Serif" font-size="11.00" fill="#000000"> &#160;</text>
<polygon fill="#000000" stroke="#000000" points="238.5,-120.7 238.5,-137.7 238.5,-137.7 238.5,-120.7 238.5,-120.7"/>
<polygon fill="#000000" stroke="#000000" points="308.5,-120.7 308.5,-137.7 308.5,-137.7 308.5,-120.7 308.5,-120.7"/>
</a>
</g>
</g>
<!-- label&#45;&gt;country_area -->
<g id="edge12" class="edge">
<title>label:w&#45;&gt;country_area:e</title>
<path fill="none" stroke="#000000" stroke-dasharray="5,2" d="M204.4567,-150.9042C192.6335,-157.6198 190.5797,-174.0184 183,-191.7 155.5345,-255.7703 211.7091,-502.7 142,-502.7"/>
<polygon fill="#000000" stroke="#000000" points="210.7004,-149.4796 219.3008,-151.2098 214.6002,-148.5898 218.5,-147.7 218.5,-147.7 218.5,-147.7 214.6002,-148.5898 217.6992,-144.1902 210.7004,-149.4796 210.7004,-149.4796"/>
<ellipse fill="none" stroke="#000000" cx="207.5806" cy="-150.1915" rx="3.2" ry="3.2"/>
</g>
<!-- place -->
<g id="node12" class="node">
<title>place</title>
<g id="a_node12"><a xlink:href="../../tables/place.html" xlink:title="place" target="_top">
<polygon fill="#ffffff" stroke="transparent" points="221.5,-38.2 221.5,-99.2 315.5,-99.2 315.5,-38.2 221.5,-38.2"/>
<polygon fill="#f5f5f5" stroke="transparent" points="221.5,-75.7 221.5,-98.7 315.5,-98.7 315.5,-75.7 221.5,-75.7"/>
<polygon fill="none" stroke="#000000" points="221.5,-75.7 221.5,-98.7 315.5,-98.7 315.5,-75.7 221.5,-75.7"/>
<text text-anchor="start" x="226.5" y="-84.3" font-family="Helvetica,sans-Serif" font-weight="bold" font-size="11.00" fill="#000000">place</text>
<text text-anchor="start" x="280.5437" y="-83.8" font-family="Helvetica,sans-Serif" font-size="11.00" fill="#000000">[table]</text>
<polygon fill="none" stroke="#000000" points="221.5,-56.7 221.5,-75.7 315.5,-75.7 315.5,-56.7 221.5,-56.7"/>
<text text-anchor="start" x="224.5" y="-62.8" font-family="Helvetica,sans-Serif" font-size="11.00" fill="#000000">...</text>
<polygon fill="#ffffff" stroke="transparent" points="221.5,-37.7 221.5,-56.7 315.5,-56.7 315.5,-37.7 221.5,-37.7"/>
<polygon fill="none" stroke="#000000" points="221.5,-37.7 221.5,-56.7 315.5,-56.7 315.5,-37.7 221.5,-37.7"/>
<polygon fill="#ffffff" stroke="transparent" points="222.5,-38.7 222.5,-55.7 241.5,-55.7 241.5,-38.7 222.5,-38.7"/>
<text text-anchor="start" x="224.2027" y="-43.8" font-family="Helvetica,sans-Serif" font-size="11.00" fill="#000000">&lt; 1</text>
<polygon fill="#ffffff" stroke="transparent" points="241.5,-38.7 241.5,-55.7 304.5,-55.7 304.5,-38.7 241.5,-38.7"/>
<text text-anchor="start" x="243.047" y="-43.8" font-family="Helvetica,sans-Serif" font-size="11.00" fill="#000000">79,996 rows</text>
<polygon fill="#ffffff" stroke="transparent" points="304.5,-38.7 304.5,-55.7 314.5,-55.7 314.5,-38.7 304.5,-38.7"/>
<text text-anchor="start" x="306.4431" y="-43.8" font-family="Helvetica,sans-Serif" font-size="11.00" fill="#000000"> &#160;</text>
<polygon fill="#000000" stroke="#000000" points="241.5,-38.7 241.5,-55.7 241.5,-55.7 241.5,-38.7 241.5,-38.7"/>
<polygon fill="#000000" stroke="#000000" points="304.5,-38.7 304.5,-55.7 304.5,-55.7 304.5,-38.7 304.5,-38.7"/>
</a>
</g>
</g>
<!-- place&#45;&gt;country_area -->
<g id="edge13" class="edge">
<title>place:w&#45;&gt;country_area:e</title>
<path fill="none" stroke="#000000" stroke-dasharray="5,2" d="M207.1391,-68.6156C194.1283,-75.032 191.0367,-91.2792 183,-109.7 165.4436,-149.9406 185.9037,-502.7 142,-502.7"/>
<polygon fill="#000000" stroke="#000000" points="213.6599,-67.2918 222.2163,-69.228 217.58,-66.4959 221.5,-65.7 221.5,-65.7 221.5,-65.7 217.58,-66.4959 220.7837,-62.172 213.6599,-67.2918 213.6599,-67.2918"/>
<ellipse fill="none" stroke="#000000" cx="210.5239" cy="-67.9285" rx="3.2" ry="3.2"/>
</g>
</g>
</svg>
