<?xml version="1.0" encoding="UTF-8" standalone="no"?>
<!DOCTYPE svg PUBLIC "-//W3C//DTD SVG 1.1//EN"
 "http://www.w3.org/Graphics/SVG/1.1/DTD/svg11.dtd">
<!-- Generated by graphviz version 2.40.1 (20161225.0304)
 -->
<!-- Title: oneDegreeRelationshipsDiagramImplied Pages: 1 -->
<svg width="372pt" height="140pt"
 viewBox="0.00 0.00 372.00 140.20" xmlns="http://www.w3.org/2000/svg" xmlns:xlink="http://www.w3.org/1999/xlink">
<g id="graph0" class="graph" transform="scale(1 1) rotate(0) translate(4 136.2)">
<title>oneDegreeRelationshipsDiagramImplied</title>
<polygon fill="#ffffff" stroke="transparent" points="-4,4 -4,-136.2 368,-136.2 368,4 -4,4"/>
<text text-anchor="middle" x="72.4936" y="-7.3" font-family="Helvetica,sans-Serif" font-size="11.00" fill="#000000">Generated by SchemaSpy</text>
<!-- iso_3166_2 -->
<g id="node1" class="node">
<title>iso_3166_2</title>
<g id="a_node1"><a xlink:href="../../tables/iso_3166_2.html" xlink:title="iso_3166_2" target="_top">
<polygon fill="#ffffff" stroke="transparent" points="191,-38.2 191,-128.2 356,-128.2 356,-38.2 191,-38.2"/>
<polygon fill="#f5f5f5" stroke="transparent" points="193.5,-103.2 193.5,-126.2 354.5,-126.2 354.5,-103.2 193.5,-103.2"/>
<polygon fill="none" stroke="#000000" points="193.5,-103.2 193.5,-126.2 354.5,-126.2 354.5,-103.2 193.5,-103.2"/>
<text text-anchor="start" x="198.5" y="-111.8" font-family="Helvetica,sans-Serif" font-weight="bold" font-size="11.00" fill="#000000">iso_3166_2</text>
<text text-anchor="start" x="319.5437" y="-111.3" font-family="Helvetica,sans-Serif" font-size="11.00" fill="#000000">[table]</text>
<polygon fill="#ffffff" stroke="transparent" points="193.5,-81.2 193.5,-103.2 293.5,-103.2 293.5,-81.2 193.5,-81.2"/>
<polygon fill="none" stroke="#000000" points="193.5,-81.2 193.5,-103.2 293.5,-103.2 293.5,-81.2 193.5,-81.2"/>
<image xlink:href="../../images/foreignKeys.png" width="11px" height="12px" preserveAspectRatio="xMinYMin meet" x="198.5" y="-98.2"/>
<text text-anchor="start" x="213.5" y="-88.3" font-family="Helvetica,sans-Serif" font-size="11.00" fill="#000000">area</text>
<polygon fill="none" stroke="#000000" points="293.5,-81.2 293.5,-103.2 354.5,-103.2 354.5,-81.2 293.5,-81.2"/>
<text text-anchor="start" x="296.5" y="-88.9" font-family="Helvetica,sans-Serif" font-size="11.00" fill="#000000">int4[10]</text>
<polygon fill="none" stroke="#000000" points="193.5,-59.2 193.5,-81.2 293.5,-81.2 293.5,-59.2 193.5,-59.2"/>
<image xlink:href="../../images/primaryKeys.png" width="11px" height="12px" preserveAspectRatio="xMinYMin meet" x="198.5" y="-76.2"/>
<text text-anchor="start" x="213.5" y="-66.3" font-family="Helvetica,sans-Serif" font-size="11.00" fill="#000000">code</text>
<polygon fill="none" stroke="#000000" points="293.5,-59.2 293.5,-81.2 354.5,-81.2 354.5,-59.2 293.5,-59.2"/>
<text text-anchor="start" x="296.494" y="-66.9" font-family="Helvetica,sans-Serif" font-size="11.00" fill="#000000">varchar[10]</text>
<polygon fill="#ffffff" stroke="transparent" points="193.5,-40.2 193.5,-59.2 354.5,-59.2 354.5,-40.2 193.5,-40.2"/>
<polygon fill="none" stroke="#000000" points="193.5,-40.2 193.5,-59.2 354.5,-59.2 354.5,-40.2 193.5,-40.2"/>
<polygon fill="#ffffff" stroke="transparent" points="194.5,-41.2 194.5,-58.2 235.5,-58.2 235.5,-41.2 194.5,-41.2"/>
<text text-anchor="start" x="196.5" y="-46.3" font-family="Helvetica,sans-Serif" font-size="11.00" fill="#000000">&lt; 1</text>
<polygon fill="#ffffff" stroke="transparent" points="235.5,-41.2 235.5,-58.2 313.5,-58.2 313.5,-41.2 235.5,-41.2"/>
<text text-anchor="start" x="247.6045" y="-46.3" font-family="Helvetica,sans-Serif" font-size="11.00" fill="#000000">4,839 rows</text>
<polygon fill="#ffffff" stroke="transparent" points="313.5,-41.2 313.5,-58.2 353.5,-58.2 353.5,-41.2 313.5,-41.2"/>
<text text-anchor="start" x="335.9053" y="-46.3" font-family="Helvetica,sans-Serif" font-size="11.00" fill="#000000">0 &gt;</text>
<polygon fill="#000000" stroke="#000000" points="235.5,-41.2 235.5,-58.2 235.5,-58.2 235.5,-41.2 235.5,-41.2"/>
<polygon fill="#000000" stroke="#000000" points="313.5,-41.2 313.5,-58.2 313.5,-58.2 313.5,-41.2 313.5,-41.2"/>
<polygon fill="none" stroke="#000000" stroke-width="2" points="192,-39.2 192,-127.2 355,-127.2 355,-39.2 192,-39.2"/>
</a>
</g>
</g>
<!-- country_area -->
<g id="node2" class="node">
<title>country_area</title>
<g id="a_node2"><a xlink:href="../../tables/country_area.html" xlink:title="country_area" target="_top">
<polygon fill="#ffffff" stroke="transparent" points="8,-62.2 8,-126.2 142,-126.2 142,-62.2 8,-62.2"/>
<polygon fill="#f5f5f5" stroke="transparent" points="8,-103.2 8,-126.2 142,-126.2 142,-103.2 8,-103.2"/>
<polygon fill="none" stroke="#000000" points="8,-103.2 8,-126.2 142,-126.2 142,-103.2 8,-103.2"/>
<text text-anchor="start" x="13" y="-111.8" font-family="Helvetica,sans-Serif" font-weight="bold" font-size="11.00" fill="#000000">country_area</text>
<text text-anchor="start" x="107.5219" y="-111.3" font-family="Helvetica,sans-Serif" font-size="11.00" fill="#000000">[table]</text>
<polygon fill="none" stroke="#000000" points="8,-81.2 8,-103.2 142,-103.2 142,-81.2 8,-81.2"/>
<image xlink:href="../../images/primaryKeys.png" width="11px" height="12px" preserveAspectRatio="xMinYMin meet" x="13" y="-98.2"/>
<text text-anchor="start" x="37" y="-88.3" font-family="Helvetica,sans-Serif" font-size="11.00" fill="#000000">area</text>
<polygon fill="#ffffff" stroke="transparent" points="8,-62.2 8,-81.2 142,-81.2 142,-62.2 8,-62.2"/>
<polygon fill="none" stroke="#000000" points="8,-62.2 8,-81.2 142,-81.2 142,-62.2 8,-62.2"/>
<polygon fill="#ffffff" stroke="transparent" points="9,-63.2 9,-80.2 36,-80.2 36,-63.2 9,-63.2"/>
<text text-anchor="start" x="11" y="-68.3" font-family="Helvetica,sans-Serif" font-size="11.00" fill="#000000"> &#160;</text>
<polygon fill="#ffffff" stroke="transparent" points="36,-63.2 36,-80.2 100,-80.2 100,-63.2 36,-63.2"/>
<text text-anchor="start" x="45.6903" y="-68.3" font-family="Helvetica,sans-Serif" font-size="11.00" fill="#000000">258 rows</text>
<polygon fill="#ffffff" stroke="transparent" points="100,-63.2 100,-80.2 141,-80.2 141,-63.2 100,-63.2"/>
<text text-anchor="start" x="117.2904" y="-68.3" font-family="Helvetica,sans-Serif" font-size="11.00" fill="#000000">11 &gt;</text>
<polygon fill="#000000" stroke="#000000" points="36,-63.2 36,-80.2 36,-80.2 36,-63.2 36,-63.2"/>
<polygon fill="#000000" stroke="#000000" points="100,-63.2 100,-80.2 100,-80.2 100,-63.2 100,-63.2"/>
</a>
</g>
</g>
<!-- iso_3166_2&#45;&gt;country_area -->
<g id="edge1" class="edge">
<title>iso_3166_2:w&#45;&gt;country_area:e</title>
<path fill="none" stroke="#000000" stroke-dasharray="5,2" d="M179.0156,-92.2C166.6771,-92.2 159.1667,-92.2 142,-92.2"/>
<polygon fill="#000000" stroke="#000000" points="185.5,-92.2001 193.5,-95.8 189.5,-92.2 193.5,-92.2 193.5,-92.2 193.5,-92.2 189.5,-92.2 193.5,-88.6 185.5,-92.2001 185.5,-92.2001"/>
<ellipse fill="none" stroke="#000000" cx="182.3" cy="-92.2001" rx="3.2" ry="3.2"/>
</g>
</g>
</svg>
