<?xml version="1.0" encoding="UTF-8" standalone="no"?>
<!DOCTYPE svg PUBLIC "-//W3C//DTD SVG 1.1//EN"
 "http://www.w3.org/Graphics/SVG/1.1/DTD/svg11.dtd">
<!-- Generated by graphviz version 2.40.1 (20161225.0304)
 -->
<!-- Title: oneDegreeRelationshipsDiagramImplied Pages: 1 -->
<svg width="725pt" height="206pt"
 viewBox="0.00 0.00 725.00 206.20" xmlns="http://www.w3.org/2000/svg" xmlns:xlink="http://www.w3.org/1999/xlink">
<g id="graph0" class="graph" transform="scale(1 1) rotate(0) translate(4 202.2)">
<title>oneDegreeRelationshipsDiagramImplied</title>
<polygon fill="#ffffff" stroke="transparent" points="-4,4 -4,-202.2 721,-202.2 721,4 -4,4"/>
<text text-anchor="middle" x="72.4936" y="-7.3" font-family="Helvetica,sans-Serif" font-size="11.00" fill="#000000">Generated by SchemaSpy</text>
<!-- recording_attribute -->
<g id="node1" class="node">
<title>recording_attribute</title>
<g id="a_node1"><a xlink:href="../../tables/recording_attribute.html" xlink:title="recording_attribute" target="_top">
<polygon fill="#ffffff" stroke="transparent" points="303,-38.2 303,-194.2 709,-194.2 709,-38.2 303,-38.2"/>
<polygon fill="#f5f5f5" stroke="transparent" points="305,-169.2 305,-192.2 707,-192.2 707,-169.2 305,-169.2"/>
<polygon fill="none" stroke="#000000" points="305,-169.2 305,-192.2 707,-192.2 707,-169.2 305,-169.2"/>
<text text-anchor="start" x="310" y="-177.8" font-family="Helvetica,sans-Serif" font-weight="bold" font-size="11.00" fill="#000000">recording_attribute</text>
<text text-anchor="start" x="672.0437" y="-177.3" font-family="Helvetica,sans-Serif" font-size="11.00" fill="#000000">[table]</text>
<polygon fill="none" stroke="#000000" points="305,-147.2 305,-169.2 617,-169.2 617,-147.2 305,-147.2"/>
<image xlink:href="../../images/primaryKeys.png" width="11px" height="12px" preserveAspectRatio="xMinYMin meet" x="310" y="-164.2"/>
<text text-anchor="start" x="325" y="-154.3" font-family="Helvetica,sans-Serif" font-size="11.00" fill="#000000">id</text>
<polygon fill="none" stroke="#000000" points="617,-147.2 617,-169.2 707,-169.2 707,-147.2 617,-147.2"/>
<text text-anchor="start" x="620" y="-154.9" font-family="Helvetica,sans-Serif" font-size="11.00" fill="#000000">serial[10]</text>
<polygon fill="#ffffff" stroke="transparent" points="305,-125.2 305,-147.2 617,-147.2 617,-125.2 305,-125.2"/>
<polygon fill="none" stroke="#000000" points="305,-125.2 305,-147.2 617,-147.2 617,-125.2 305,-125.2"/>
<image xlink:href="../../images/foreignKeys.png" width="11px" height="12px" preserveAspectRatio="xMinYMin meet" x="310" y="-142.2"/>
<text text-anchor="start" x="325" y="-132.3" font-family="Helvetica,sans-Serif" font-size="11.00" fill="#000000">recording</text>
<polygon fill="none" stroke="#000000" points="617,-125.2 617,-147.2 707,-147.2 707,-125.2 617,-125.2"/>
<text text-anchor="start" x="620" y="-132.9" font-family="Helvetica,sans-Serif" font-size="11.00" fill="#000000">int4[10]</text>
<polygon fill="none" stroke="#000000" points="305,-103.2 305,-125.2 617,-125.2 617,-103.2 305,-103.2"/>
<text text-anchor="start" x="325" y="-110.3" font-family="Helvetica,sans-Serif" font-size="11.00" fill="#000000">recording_attribute_type</text>
<polygon fill="none" stroke="#000000" points="617,-103.2 617,-125.2 707,-125.2 707,-103.2 617,-103.2"/>
<text text-anchor="start" x="620" y="-110.9" font-family="Helvetica,sans-Serif" font-size="11.00" fill="#000000">int4[10]</text>
<polygon fill="none" stroke="#000000" points="305,-81.2 305,-103.2 617,-103.2 617,-81.2 305,-81.2"/>
<text text-anchor="start" x="325" y="-88.3" font-family="Helvetica,sans-Serif" font-size="11.00" fill="#000000">recording_attribute_type_allowed_value</text>
<polygon fill="none" stroke="#000000" points="617,-81.2 617,-103.2 707,-103.2 707,-81.2 617,-81.2"/>
<text text-anchor="start" x="620" y="-88.9" font-family="Helvetica,sans-Serif" font-size="11.00" fill="#000000">int4[10]</text>
<polygon fill="none" stroke="#000000" points="305,-59.2 305,-81.2 617,-81.2 617,-59.2 305,-59.2"/>
<text text-anchor="start" x="325" y="-66.3" font-family="Helvetica,sans-Serif" font-size="11.00" fill="#000000">recording_attribute_text</text>
<polygon fill="none" stroke="#000000" points="617,-59.2 617,-81.2 707,-81.2 707,-59.2 617,-59.2"/>
<text text-anchor="start" x="619.5043" y="-66.9" font-family="Helvetica,sans-Serif" font-size="11.00" fill="#000000">text[2147483647]</text>
<polygon fill="#ffffff" stroke="transparent" points="305,-40.2 305,-59.2 707,-59.2 707,-40.2 305,-40.2"/>
<polygon fill="none" stroke="#000000" points="305,-40.2 305,-59.2 707,-59.2 707,-40.2 305,-40.2"/>
<polygon fill="#ffffff" stroke="transparent" points="306,-41.2 306,-58.2 434,-58.2 434,-41.2 306,-41.2"/>
<text text-anchor="start" x="308" y="-46.3" font-family="Helvetica,sans-Serif" font-size="11.00" fill="#000000">&lt; 1</text>
<polygon fill="#ffffff" stroke="transparent" points="434,-41.2 434,-58.2 579,-58.2 579,-41.2 434,-41.2"/>
<text text-anchor="start" x="490.3053" y="-46.3" font-family="Helvetica,sans-Serif" font-size="11.00" fill="#000000">0 rows</text>
<polygon fill="#ffffff" stroke="transparent" points="579,-41.2 579,-58.2 706,-58.2 706,-41.2 579,-41.2"/>
<text text-anchor="start" x="688.4053" y="-46.3" font-family="Helvetica,sans-Serif" font-size="11.00" fill="#000000">0 &gt;</text>
<polygon fill="#000000" stroke="#000000" points="434,-41.2 434,-58.2 434,-58.2 434,-41.2 434,-41.2"/>
<polygon fill="#000000" stroke="#000000" points="579,-41.2 579,-58.2 579,-58.2 579,-41.2 579,-41.2"/>
<polygon fill="none" stroke="#000000" stroke-width="2" points="304,-39.2 304,-193.2 708,-193.2 708,-39.2 304,-39.2"/>
</a>
</g>
</g>
<!-- recording_first_release_date -->
<g id="node2" class="node">
<title>recording_first_release_date</title>
<g id="a_node2"><a xlink:href="../../tables/recording_first_release_date.html" xlink:title="recording_first_release_date" target="_top">
<polygon fill="#ffffff" stroke="transparent" points="8,-87.7 8,-170.7 254,-170.7 254,-87.7 8,-87.7"/>
<polygon fill="#f5f5f5" stroke="transparent" points="8,-147.2 8,-170.2 254,-170.2 254,-147.2 8,-147.2"/>
<polygon fill="none" stroke="#000000" points="8,-147.2 8,-170.2 254,-170.2 254,-147.2 8,-147.2"/>
<text text-anchor="start" x="13" y="-155.8" font-family="Helvetica,sans-Serif" font-weight="bold" font-size="11.00" fill="#000000">recording_first_release_date</text>
<text text-anchor="start" x="219.5219" y="-155.3" font-family="Helvetica,sans-Serif" font-size="11.00" fill="#000000">[table]</text>
<polygon fill="none" stroke="#000000" points="8,-125.2 8,-147.2 254,-147.2 254,-125.2 8,-125.2"/>
<image xlink:href="../../images/primaryKeys.png" width="11px" height="12px" preserveAspectRatio="xMinYMin meet" x="13" y="-142.2"/>
<text text-anchor="start" x="37" y="-132.3" font-family="Helvetica,sans-Serif" font-size="11.00" fill="#000000">recording</text>
<polygon fill="none" stroke="#000000" points="8,-106.2 8,-125.2 254,-125.2 254,-106.2 8,-106.2"/>
<text text-anchor="start" x="11" y="-112.3" font-family="Helvetica,sans-Serif" font-size="11.00" fill="#000000">...</text>
<polygon fill="#ffffff" stroke="transparent" points="8,-87.2 8,-106.2 254,-106.2 254,-87.2 8,-87.2"/>
<polygon fill="none" stroke="#000000" points="8,-87.2 8,-106.2 254,-106.2 254,-87.2 8,-87.2"/>
<polygon fill="#ffffff" stroke="transparent" points="9,-88.2 9,-105.2 79,-105.2 79,-88.2 9,-88.2"/>
<text text-anchor="start" x="11" y="-93.3" font-family="Helvetica,sans-Serif" font-size="11.00" fill="#000000"> &#160;</text>
<polygon fill="#ffffff" stroke="transparent" points="79,-88.2 79,-105.2 175,-105.2 175,-88.2 79,-88.2"/>
<text text-anchor="start" x="110.8053" y="-93.3" font-family="Helvetica,sans-Serif" font-size="11.00" fill="#000000">0 rows</text>
<polygon fill="#ffffff" stroke="transparent" points="175,-88.2 175,-105.2 253,-105.2 253,-88.2 175,-88.2"/>
<text text-anchor="start" x="235.4053" y="-93.3" font-family="Helvetica,sans-Serif" font-size="11.00" fill="#000000">5 &gt;</text>
<polygon fill="#000000" stroke="#000000" points="79,-88.2 79,-105.2 79,-105.2 79,-88.2 79,-88.2"/>
<polygon fill="#000000" stroke="#000000" points="175,-88.2 175,-105.2 175,-105.2 175,-88.2 175,-88.2"/>
</a>
</g>
</g>
<!-- recording_attribute&#45;&gt;recording_first_release_date -->
<g id="edge1" class="edge">
<title>recording_attribute:w&#45;&gt;recording_first_release_date:e</title>
<path fill="none" stroke="#000000" stroke-dasharray="5,2" d="M290.276,-136.2C278.2815,-136.2 270.8229,-136.2 254,-136.2"/>
<polygon fill="#000000" stroke="#000000" points="297,-136.2001 305,-139.8 301,-136.2 305,-136.2 305,-136.2 305,-136.2 301,-136.2 305,-132.6 297,-136.2001 297,-136.2001"/>
<ellipse fill="none" stroke="#000000" cx="293.8" cy="-136.2001" rx="3.2" ry="3.2"/>
</g>
</g>
</svg>
