<?xml version="1.0" encoding="UTF-8" standalone="no"?>
<!DOCTYPE svg PUBLIC "-//W3C//DTD SVG 1.1//EN"
 "http://www.w3.org/Graphics/SVG/1.1/DTD/svg11.dtd">
<!-- Generated by graphviz version 2.40.1 (20161225.0304)
 -->
<!-- Title: oneDegreeRelationshipsDiagram Pages: 1 -->
<svg width="260pt" height="360pt"
 viewBox="0.00 0.00 260.00 360.20" xmlns="http://www.w3.org/2000/svg" xmlns:xlink="http://www.w3.org/1999/xlink">
<g id="graph0" class="graph" transform="scale(1 1) rotate(0) translate(4 356.2)">
<title>oneDegreeRelationshipsDiagram</title>
<polygon fill="#ffffff" stroke="transparent" points="-4,4 -4,-356.2 256,-356.2 256,4 -4,4"/>
<text text-anchor="middle" x="72.4936" y="-7.3" font-family="Helvetica,sans-Serif" font-size="11.00" fill="#000000">Generated by SchemaSpy</text>
<!-- track -->
<g id="node1" class="node">
<title>track</title>
<g id="a_node1"><a xlink:href="../../tables/track.html" xlink:title="track" target="_top">
<polygon fill="#ffffff" stroke="transparent" points="8,-38.2 8,-348.2 244,-348.2 244,-38.2 8,-38.2"/>
<polygon fill="#f5f5f5" stroke="transparent" points="10,-323.2 10,-346.2 242,-346.2 242,-323.2 10,-323.2"/>
<polygon fill="none" stroke="#000000" points="10,-323.2 10,-346.2 242,-346.2 242,-323.2 10,-323.2"/>
<text text-anchor="start" x="15" y="-331.8" font-family="Helvetica,sans-Serif" font-weight="bold" font-size="11.00" fill="#000000">track</text>
<text text-anchor="start" x="207.0437" y="-331.3" font-family="Helvetica,sans-Serif" font-size="11.00" fill="#000000">[table]</text>
<polygon fill="none" stroke="#000000" points="10,-301.2 10,-323.2 133,-323.2 133,-301.2 10,-301.2"/>
<image xlink:href="../../images/primaryKeys.png" width="11px" height="12px" preserveAspectRatio="xMinYMin meet" x="15" y="-318.2"/>
<text text-anchor="start" x="30" y="-308.3" font-family="Helvetica,sans-Serif" font-size="11.00" fill="#000000">id</text>
<polygon fill="none" stroke="#000000" points="133,-301.2 133,-323.2 242,-323.2 242,-301.2 133,-301.2"/>
<text text-anchor="start" x="136" y="-308.9" font-family="Helvetica,sans-Serif" font-size="11.00" fill="#000000">serial[10]</text>
<polygon fill="#ffffff" stroke="transparent" points="10,-279.2 10,-301.2 133,-301.2 133,-279.2 10,-279.2"/>
<polygon fill="none" stroke="#000000" points="10,-279.2 10,-301.2 133,-301.2 133,-279.2 10,-279.2"/>
<text text-anchor="start" x="30" y="-286.3" font-family="Helvetica,sans-Serif" font-size="11.00" fill="#000000">gid</text>
<polygon fill="none" stroke="#000000" points="133,-279.2 133,-301.2 242,-301.2 242,-279.2 133,-279.2"/>
<text text-anchor="start" x="136" y="-286.9" font-family="Helvetica,sans-Serif" font-size="11.00" fill="#000000">uuid[2147483647]</text>
<polygon fill="#ffffff" stroke="transparent" points="10,-257.2 10,-279.2 133,-279.2 133,-257.2 10,-257.2"/>
<polygon fill="none" stroke="#000000" points="10,-257.2 10,-279.2 133,-279.2 133,-257.2 10,-257.2"/>
<image xlink:href="../../images/foreignKeys.png" width="11px" height="12px" preserveAspectRatio="xMinYMin meet" x="15" y="-274.2"/>
<text text-anchor="start" x="30" y="-264.3" font-family="Helvetica,sans-Serif" font-size="11.00" fill="#000000">recording</text>
<polygon fill="none" stroke="#000000" points="133,-257.2 133,-279.2 242,-279.2 242,-257.2 133,-257.2"/>
<text text-anchor="start" x="136" y="-264.9" font-family="Helvetica,sans-Serif" font-size="11.00" fill="#000000">int4[10]</text>
<polygon fill="#ffffff" stroke="transparent" points="10,-235.2 10,-257.2 133,-257.2 133,-235.2 10,-235.2"/>
<polygon fill="none" stroke="#000000" points="10,-235.2 10,-257.2 133,-257.2 133,-235.2 10,-235.2"/>
<image xlink:href="../../images/foreignKeys.png" width="11px" height="12px" preserveAspectRatio="xMinYMin meet" x="15" y="-252.2"/>
<text text-anchor="start" x="30" y="-242.3" font-family="Helvetica,sans-Serif" font-size="11.00" fill="#000000">medium</text>
<polygon fill="none" stroke="#000000" points="133,-235.2 133,-257.2 242,-257.2 242,-235.2 133,-235.2"/>
<text text-anchor="start" x="136" y="-242.9" font-family="Helvetica,sans-Serif" font-size="11.00" fill="#000000">int4[10]</text>
<polygon fill="#ffffff" stroke="transparent" points="10,-213.2 10,-235.2 133,-235.2 133,-213.2 10,-213.2"/>
<polygon fill="none" stroke="#000000" points="10,-213.2 10,-235.2 133,-235.2 133,-213.2 10,-213.2"/>
<text text-anchor="start" x="30" y="-220.3" font-family="Helvetica,sans-Serif" font-size="11.00" fill="#000000">position</text>
<polygon fill="none" stroke="#000000" points="133,-213.2 133,-235.2 242,-235.2 242,-213.2 133,-213.2"/>
<text text-anchor="start" x="136" y="-220.9" font-family="Helvetica,sans-Serif" font-size="11.00" fill="#000000">int4[10]</text>
<polygon fill="none" stroke="#000000" points="10,-191.2 10,-213.2 133,-213.2 133,-191.2 10,-191.2"/>
<text text-anchor="start" x="30" y="-198.3" font-family="Helvetica,sans-Serif" font-size="11.00" fill="#000000">number</text>
<polygon fill="none" stroke="#000000" points="133,-191.2 133,-213.2 242,-213.2 242,-191.2 133,-191.2"/>
<text text-anchor="start" x="136" y="-198.9" font-family="Helvetica,sans-Serif" font-size="11.00" fill="#000000">text[2147483647]</text>
<polygon fill="none" stroke="#000000" points="10,-169.2 10,-191.2 133,-191.2 133,-169.2 10,-169.2"/>
<text text-anchor="start" x="30" y="-176.3" font-family="Helvetica,sans-Serif" font-size="11.00" fill="#000000">name</text>
<polygon fill="none" stroke="#000000" points="133,-169.2 133,-191.2 242,-191.2 242,-169.2 133,-169.2"/>
<text text-anchor="start" x="135.5344" y="-176.9" font-family="Helvetica,sans-Serif" font-size="11.00" fill="#000000">varchar[2147483647]</text>
<polygon fill="#ffffff" stroke="transparent" points="10,-147.2 10,-169.2 133,-169.2 133,-147.2 10,-147.2"/>
<polygon fill="none" stroke="#000000" points="10,-147.2 10,-169.2 133,-169.2 133,-147.2 10,-147.2"/>
<text text-anchor="start" x="30" y="-154.3" font-family="Helvetica,sans-Serif" font-size="11.00" fill="#000000">artist_credit</text>
<polygon fill="none" stroke="#000000" points="133,-147.2 133,-169.2 242,-169.2 242,-147.2 133,-147.2"/>
<text text-anchor="start" x="136" y="-154.9" font-family="Helvetica,sans-Serif" font-size="11.00" fill="#000000">int4[10]</text>
<polygon fill="none" stroke="#000000" points="10,-125.2 10,-147.2 133,-147.2 133,-125.2 10,-125.2"/>
<text text-anchor="start" x="30" y="-132.3" font-family="Helvetica,sans-Serif" font-size="11.00" fill="#000000">length</text>
<polygon fill="none" stroke="#000000" points="133,-125.2 133,-147.2 242,-147.2 242,-125.2 133,-125.2"/>
<text text-anchor="start" x="136" y="-132.9" font-family="Helvetica,sans-Serif" font-size="11.00" fill="#000000">int4[10]</text>
<polygon fill="none" stroke="#000000" points="10,-103.2 10,-125.2 133,-125.2 133,-103.2 10,-103.2"/>
<text text-anchor="start" x="30" y="-110.3" font-family="Helvetica,sans-Serif" font-size="11.00" fill="#000000">edits_pending</text>
<polygon fill="none" stroke="#000000" points="133,-103.2 133,-125.2 242,-125.2 242,-103.2 133,-103.2"/>
<text text-anchor="start" x="136" y="-110.9" font-family="Helvetica,sans-Serif" font-size="11.00" fill="#000000">int4[10]</text>
<polygon fill="none" stroke="#000000" points="10,-81.2 10,-103.2 133,-103.2 133,-81.2 10,-81.2"/>
<text text-anchor="start" x="30" y="-88.3" font-family="Helvetica,sans-Serif" font-size="11.00" fill="#000000">last_updated</text>
<polygon fill="none" stroke="#000000" points="133,-81.2 133,-103.2 242,-103.2 242,-81.2 133,-81.2"/>
<text text-anchor="start" x="136" y="-88.9" font-family="Helvetica,sans-Serif" font-size="11.00" fill="#000000">timestamptz[35,6]</text>
<polygon fill="none" stroke="#000000" points="10,-59.2 10,-81.2 133,-81.2 133,-59.2 10,-59.2"/>
<text text-anchor="start" x="30" y="-66.3" font-family="Helvetica,sans-Serif" font-size="11.00" fill="#000000">is_data_track</text>
<polygon fill="none" stroke="#000000" points="133,-59.2 133,-81.2 242,-81.2 242,-59.2 133,-59.2"/>
<text text-anchor="start" x="136" y="-66.9" font-family="Helvetica,sans-Serif" font-size="11.00" fill="#000000">bool[1]</text>
<polygon fill="#ffffff" stroke="transparent" points="10,-40.2 10,-59.2 242,-59.2 242,-40.2 10,-40.2"/>
<polygon fill="none" stroke="#000000" points="10,-40.2 10,-59.2 242,-59.2 242,-40.2 10,-40.2"/>
<polygon fill="#ffffff" stroke="transparent" points="11,-41.2 11,-58.2 66,-58.2 66,-41.2 11,-41.2"/>
<text text-anchor="start" x="13" y="-46.3" font-family="Helvetica,sans-Serif" font-size="11.00" fill="#000000">&lt; 0</text>
<polygon fill="#ffffff" stroke="transparent" points="66,-41.2 66,-58.2 187,-58.2 187,-41.2 66,-41.2"/>
<text text-anchor="start" x="85.8462" y="-46.3" font-family="Helvetica,sans-Serif" font-size="11.00" fill="#000000">55,639,772 rows</text>
<polygon fill="#ffffff" stroke="transparent" points="187,-41.2 187,-58.2 241,-58.2 241,-41.2 187,-41.2"/>
<text text-anchor="start" x="223.4053" y="-46.3" font-family="Helvetica,sans-Serif" font-size="11.00" fill="#000000">0 &gt;</text>
<polygon fill="#000000" stroke="#000000" points="66,-41.2 66,-58.2 66,-58.2 66,-41.2 66,-41.2"/>
<polygon fill="#000000" stroke="#000000" points="187,-41.2 187,-58.2 187,-58.2 187,-41.2 187,-41.2"/>
<polygon fill="none" stroke="#000000" stroke-width="2" points="9,-39.2 9,-347.2 243,-347.2 243,-39.2 9,-39.2"/>
</a>
</g>
</g>
</g>
</svg>
