<?xml version="1.0" encoding="UTF-8" standalone="no"?>
<!DOCTYPE svg PUBLIC "-//W3C//DTD SVG 1.1//EN"
 "http://www.w3.org/Graphics/SVG/1.1/DTD/svg11.dtd">
<!-- Generated by graphviz version 2.40.1 (20161225.0304)
 -->
<!-- Title: oneDegreeRelationshipsDiagramImplied Pages: 1 -->
<svg width="455pt" height="272pt"
 viewBox="0.00 0.00 455.00 272.20" xmlns="http://www.w3.org/2000/svg" xmlns:xlink="http://www.w3.org/1999/xlink">
<g id="graph0" class="graph" transform="scale(1 1) rotate(0) translate(4 268.2)">
<title>oneDegreeRelationshipsDiagramImplied</title>
<polygon fill="#ffffff" stroke="transparent" points="-4,4 -4,-268.2 451,-268.2 451,4 -4,4"/>
<text text-anchor="middle" x="72.4936" y="-7.3" font-family="Helvetica,sans-Serif" font-size="11.00" fill="#000000">Generated by SchemaSpy</text>
<!-- artist_release_va -->
<g id="node1" class="node">
<title>artist_release_va</title>
<g id="a_node1"><a xlink:href="../../tables/artist_release_va.html" xlink:title="artist_release_va" target="_top">
<polygon fill="#ffffff" stroke="transparent" points="175,-38.2 175,-260.2 439,-260.2 439,-38.2 175,-38.2"/>
<polygon fill="#f5f5f5" stroke="transparent" points="177,-235.2 177,-258.2 437,-258.2 437,-235.2 177,-235.2"/>
<polygon fill="none" stroke="#000000" points="177,-235.2 177,-258.2 437,-258.2 437,-235.2 177,-235.2"/>
<text text-anchor="start" x="182" y="-243.8" font-family="Helvetica,sans-Serif" font-weight="bold" font-size="11.00" fill="#000000">artist_release_va</text>
<text text-anchor="start" x="402.0437" y="-243.3" font-family="Helvetica,sans-Serif" font-size="11.00" fill="#000000">[table]</text>
<polygon fill="none" stroke="#000000" points="177,-213.2 177,-235.2 328,-235.2 328,-213.2 177,-213.2"/>
<text text-anchor="start" x="197" y="-220.3" font-family="Helvetica,sans-Serif" font-size="11.00" fill="#000000">is_track_artist</text>
<polygon fill="none" stroke="#000000" points="328,-213.2 328,-235.2 437,-235.2 437,-213.2 328,-213.2"/>
<text text-anchor="start" x="331" y="-220.9" font-family="Helvetica,sans-Serif" font-size="11.00" fill="#000000">bool[1]</text>
<polygon fill="#ffffff" stroke="transparent" points="177,-191.2 177,-213.2 328,-213.2 328,-191.2 177,-191.2"/>
<polygon fill="none" stroke="#000000" points="177,-191.2 177,-213.2 328,-213.2 328,-191.2 177,-191.2"/>
<text text-anchor="start" x="197" y="-198.3" font-family="Helvetica,sans-Serif" font-size="11.00" fill="#000000">artist</text>
<polygon fill="none" stroke="#000000" points="328,-191.2 328,-213.2 437,-213.2 437,-191.2 328,-191.2"/>
<text text-anchor="start" x="331" y="-198.9" font-family="Helvetica,sans-Serif" font-size="11.00" fill="#000000">int4[10]</text>
<polygon fill="#ffffff" stroke="transparent" points="177,-169.2 177,-191.2 328,-191.2 328,-169.2 177,-169.2"/>
<polygon fill="none" stroke="#000000" points="177,-169.2 177,-191.2 328,-191.2 328,-169.2 177,-169.2"/>
<text text-anchor="start" x="197" y="-176.3" font-family="Helvetica,sans-Serif" font-size="11.00" fill="#000000">first_release_date</text>
<polygon fill="none" stroke="#000000" points="328,-169.2 328,-191.2 437,-191.2 437,-169.2 328,-169.2"/>
<text text-anchor="start" x="331" y="-176.9" font-family="Helvetica,sans-Serif" font-size="11.00" fill="#000000">int4[10]</text>
<polygon fill="#ffffff" stroke="transparent" points="177,-147.2 177,-169.2 328,-169.2 328,-147.2 177,-147.2"/>
<polygon fill="none" stroke="#000000" points="177,-147.2 177,-169.2 328,-169.2 328,-147.2 177,-147.2"/>
<text text-anchor="start" x="197" y="-154.3" font-family="Helvetica,sans-Serif" font-size="11.00" fill="#000000">catalog_numbers</text>
<polygon fill="none" stroke="#000000" points="328,-147.2 328,-169.2 437,-169.2 437,-147.2 328,-147.2"/>
<text text-anchor="start" x="331" y="-154.9" font-family="Helvetica,sans-Serif" font-size="11.00" fill="#000000">_text[2147483647]</text>
<polygon fill="#ffffff" stroke="transparent" points="177,-125.2 177,-147.2 328,-147.2 328,-125.2 177,-125.2"/>
<polygon fill="none" stroke="#000000" points="177,-125.2 177,-147.2 328,-147.2 328,-125.2 177,-125.2"/>
<image xlink:href="../../images/foreignKeys.png" width="11px" height="12px" preserveAspectRatio="xMinYMin meet" x="182" y="-142.2"/>
<text text-anchor="start" x="197" y="-132.3" font-family="Helvetica,sans-Serif" font-size="11.00" fill="#000000">country_code</text>
<polygon fill="none" stroke="#000000" points="328,-125.2 328,-147.2 437,-147.2 437,-125.2 328,-125.2"/>
<text text-anchor="start" x="331" y="-132.9" font-family="Helvetica,sans-Serif" font-size="11.00" fill="#000000">bpchar[2]</text>
<polygon fill="#ffffff" stroke="transparent" points="177,-103.2 177,-125.2 328,-125.2 328,-103.2 177,-103.2"/>
<polygon fill="none" stroke="#000000" points="177,-103.2 177,-125.2 328,-125.2 328,-103.2 177,-103.2"/>
<text text-anchor="start" x="197" y="-110.3" font-family="Helvetica,sans-Serif" font-size="11.00" fill="#000000">barcode</text>
<polygon fill="none" stroke="#000000" points="328,-103.2 328,-125.2 437,-125.2 437,-103.2 328,-103.2"/>
<text text-anchor="start" x="331" y="-110.9" font-family="Helvetica,sans-Serif" font-size="11.00" fill="#000000">int8[19]</text>
<polygon fill="#ffffff" stroke="transparent" points="177,-81.2 177,-103.2 328,-103.2 328,-81.2 177,-81.2"/>
<polygon fill="none" stroke="#000000" points="177,-81.2 177,-103.2 328,-103.2 328,-81.2 177,-81.2"/>
<text text-anchor="start" x="197" y="-88.3" font-family="Helvetica,sans-Serif" font-size="11.00" fill="#000000">name</text>
<polygon fill="none" stroke="#000000" points="328,-81.2 328,-103.2 437,-103.2 437,-81.2 328,-81.2"/>
<text text-anchor="start" x="330.5344" y="-88.9" font-family="Helvetica,sans-Serif" font-size="11.00" fill="#000000">varchar[2147483647]</text>
<polygon fill="#ffffff" stroke="transparent" points="177,-59.2 177,-81.2 328,-81.2 328,-59.2 177,-59.2"/>
<polygon fill="none" stroke="#000000" points="177,-59.2 177,-81.2 328,-81.2 328,-59.2 177,-59.2"/>
<text text-anchor="start" x="197" y="-66.3" font-family="Helvetica,sans-Serif" font-size="11.00" fill="#000000">release</text>
<polygon fill="none" stroke="#000000" points="328,-59.2 328,-81.2 437,-81.2 437,-59.2 328,-59.2"/>
<text text-anchor="start" x="331" y="-66.9" font-family="Helvetica,sans-Serif" font-size="11.00" fill="#000000">int4[10]</text>
<polygon fill="#ffffff" stroke="transparent" points="177,-40.2 177,-59.2 437,-59.2 437,-40.2 177,-40.2"/>
<polygon fill="none" stroke="#000000" points="177,-40.2 177,-59.2 437,-59.2 437,-40.2 177,-40.2"/>
<polygon fill="#ffffff" stroke="transparent" points="178,-41.2 178,-58.2 259,-58.2 259,-41.2 178,-41.2"/>
<text text-anchor="start" x="180" y="-46.3" font-family="Helvetica,sans-Serif" font-size="11.00" fill="#000000">&lt; 1</text>
<polygon fill="#ffffff" stroke="transparent" points="259,-41.2 259,-58.2 356,-58.2 356,-41.2 259,-41.2"/>
<text text-anchor="start" x="291.3053" y="-46.3" font-family="Helvetica,sans-Serif" font-size="11.00" fill="#000000">0 rows</text>
<polygon fill="#ffffff" stroke="transparent" points="356,-41.2 356,-58.2 436,-58.2 436,-41.2 356,-41.2"/>
<text text-anchor="start" x="418.4053" y="-46.3" font-family="Helvetica,sans-Serif" font-size="11.00" fill="#000000">0 &gt;</text>
<polygon fill="#000000" stroke="#000000" points="259,-41.2 259,-58.2 259,-58.2 259,-41.2 259,-41.2"/>
<polygon fill="#000000" stroke="#000000" points="356,-41.2 356,-58.2 356,-58.2 356,-41.2 356,-41.2"/>
<polygon fill="none" stroke="#000000" stroke-width="2" points="176,-39.2 176,-259.2 438,-259.2 438,-39.2 176,-39.2"/>
</a>
</g>
</g>
<!-- iso_3166_1 -->
<g id="node2" class="node">
<title>iso_3166_1</title>
<g id="a_node2"><a xlink:href="../../tables/iso_3166_1.html" xlink:title="iso_3166_1" target="_top">
<polygon fill="#ffffff" stroke="transparent" points="8,-106.2 8,-192.2 126,-192.2 126,-106.2 8,-106.2"/>
<polygon fill="#f5f5f5" stroke="transparent" points="8,-169.2 8,-192.2 126,-192.2 126,-169.2 8,-169.2"/>
<polygon fill="none" stroke="#000000" points="8,-169.2 8,-192.2 126,-192.2 126,-169.2 8,-169.2"/>
<text text-anchor="start" x="13" y="-177.8" font-family="Helvetica,sans-Serif" font-weight="bold" font-size="11.00" fill="#000000">iso_3166_1</text>
<text text-anchor="start" x="91.5219" y="-177.3" font-family="Helvetica,sans-Serif" font-size="11.00" fill="#000000">[table]</text>
<polygon fill="#ffffff" stroke="transparent" points="8,-147.2 8,-169.2 126,-169.2 126,-147.2 8,-147.2"/>
<polygon fill="none" stroke="#000000" points="8,-147.2 8,-169.2 126,-169.2 126,-147.2 8,-147.2"/>
<image xlink:href="../../images/foreignKeys.png" width="11px" height="12px" preserveAspectRatio="xMinYMin meet" x="13" y="-164.2"/>
<text text-anchor="start" x="37" y="-154.3" font-family="Helvetica,sans-Serif" font-size="11.00" fill="#000000">area</text>
<polygon fill="none" stroke="#000000" points="8,-125.2 8,-147.2 126,-147.2 126,-125.2 8,-125.2"/>
<image xlink:href="../../images/primaryKeys.png" width="11px" height="12px" preserveAspectRatio="xMinYMin meet" x="13" y="-142.2"/>
<text text-anchor="start" x="37" y="-132.3" font-family="Helvetica,sans-Serif" font-size="11.00" fill="#000000">code</text>
<polygon fill="#ffffff" stroke="transparent" points="8,-106.2 8,-125.2 126,-125.2 126,-106.2 8,-106.2"/>
<polygon fill="none" stroke="#000000" points="8,-106.2 8,-125.2 126,-125.2 126,-106.2 8,-106.2"/>
<polygon fill="#ffffff" stroke="transparent" points="9,-107.2 9,-124.2 38,-124.2 38,-107.2 9,-107.2"/>
<text text-anchor="start" x="11" y="-112.3" font-family="Helvetica,sans-Serif" font-size="11.00" fill="#000000">&lt; 1</text>
<polygon fill="#ffffff" stroke="transparent" points="38,-107.2 38,-124.2 96,-124.2 96,-107.2 38,-107.2"/>
<text text-anchor="start" x="44.6903" y="-112.3" font-family="Helvetica,sans-Serif" font-size="11.00" fill="#000000">258 rows</text>
<polygon fill="#ffffff" stroke="transparent" points="96,-107.2 96,-124.2 125,-124.2 125,-107.2 96,-107.2"/>
<text text-anchor="start" x="107.4053" y="-112.3" font-family="Helvetica,sans-Serif" font-size="11.00" fill="#000000">2 &gt;</text>
<polygon fill="#000000" stroke="#000000" points="38,-107.2 38,-124.2 38,-124.2 38,-107.2 38,-107.2"/>
<polygon fill="#000000" stroke="#000000" points="96,-107.2 96,-124.2 96,-124.2 96,-107.2 96,-107.2"/>
</a>
</g>
</g>
<!-- artist_release_va&#45;&gt;iso_3166_1 -->
<g id="edge1" class="edge">
<title>artist_release_va:w&#45;&gt;iso_3166_1:e</title>
<path fill="none" stroke="#000000" stroke-dasharray="5,2" d="M162.276,-136.2C150.2815,-136.2 142.8229,-136.2 126,-136.2"/>
<polygon fill="#000000" stroke="#000000" points="169,-136.2001 177,-139.8 173,-136.2 177,-136.2 177,-136.2 177,-136.2 173,-136.2 177,-132.6 169,-136.2001 169,-136.2001"/>
<ellipse fill="none" stroke="#000000" cx="165.8" cy="-136.2001" rx="3.2" ry="3.2"/>
</g>
</g>
</svg>
