<?xml version="1.0" encoding="UTF-8" standalone="no"?>
<!DOCTYPE svg PUBLIC "-//W3C//DTD SVG 1.1//EN"
 "http://www.w3.org/Graphics/SVG/1.1/DTD/svg11.dtd">
<!-- Generated by graphviz version 2.40.1 (20161225.0304)
 -->
<!-- Title: twoDegreesRelationshipsDiagramImplied Pages: 1 -->
<svg width="725pt" height="516pt"
 viewBox="0.00 0.00 725.00 516.20" xmlns="http://www.w3.org/2000/svg" xmlns:xlink="http://www.w3.org/1999/xlink">
<g id="graph0" class="graph" transform="scale(1 1) rotate(0) translate(4 512.2)">
<title>twoDegreesRelationshipsDiagramImplied</title>
<polygon fill="#ffffff" stroke="transparent" points="-4,4 -4,-512.2 721,-512.2 721,4 -4,4"/>
<text text-anchor="middle" x="72.4936" y="-7.3" font-family="Helvetica,sans-Serif" font-size="11.00" fill="#000000">Generated by SchemaSpy</text>
<!-- isrc -->
<g id="node1" class="node">
<title>isrc</title>
<g id="a_node1"><a xlink:href="../../tables/isrc.html" xlink:title="isrc" target="_top">
<polygon fill="#ffffff" stroke="transparent" points="451,-443.2 451,-504.2 561,-504.2 561,-443.2 451,-443.2"/>
<polygon fill="#f5f5f5" stroke="transparent" points="451,-480.7 451,-503.7 561,-503.7 561,-480.7 451,-480.7"/>
<polygon fill="none" stroke="#000000" points="451,-480.7 451,-503.7 561,-503.7 561,-480.7 451,-480.7"/>
<text text-anchor="start" x="456" y="-489.3" font-family="Helvetica,sans-Serif" font-weight="bold" font-size="11.00" fill="#000000">isrc</text>
<text text-anchor="start" x="526.0437" y="-488.8" font-family="Helvetica,sans-Serif" font-size="11.00" fill="#000000">[table]</text>
<polygon fill="none" stroke="#000000" points="451,-461.7 451,-480.7 561,-480.7 561,-461.7 451,-461.7"/>
<text text-anchor="start" x="454" y="-467.8" font-family="Helvetica,sans-Serif" font-size="11.00" fill="#000000">...</text>
<polygon fill="#ffffff" stroke="transparent" points="451,-442.7 451,-461.7 561,-461.7 561,-442.7 451,-442.7"/>
<polygon fill="none" stroke="#000000" points="451,-442.7 451,-461.7 561,-461.7 561,-442.7 451,-442.7"/>
<polygon fill="#ffffff" stroke="transparent" points="452,-443.7 452,-460.7 471,-460.7 471,-443.7 452,-443.7"/>
<text text-anchor="start" x="453.7027" y="-448.8" font-family="Helvetica,sans-Serif" font-size="11.00" fill="#000000">&lt; 1</text>
<polygon fill="#ffffff" stroke="transparent" points="471,-443.7 471,-460.7 550,-460.7 550,-443.7 471,-443.7"/>
<text text-anchor="start" x="472.9037" y="-448.8" font-family="Helvetica,sans-Serif" font-size="11.00" fill="#000000">5,894,873 rows</text>
<polygon fill="#ffffff" stroke="transparent" points="550,-443.7 550,-460.7 560,-460.7 560,-443.7 550,-443.7"/>
<text text-anchor="start" x="551.9431" y="-448.8" font-family="Helvetica,sans-Serif" font-size="11.00" fill="#000000"> &#160;</text>
<polygon fill="#000000" stroke="#000000" points="471,-443.7 471,-460.7 471,-460.7 471,-443.7 471,-443.7"/>
<polygon fill="#000000" stroke="#000000" points="550,-443.7 550,-460.7 550,-460.7 550,-443.7 550,-443.7"/>
</a>
</g>
</g>
<!-- recording_first_release_date -->
<g id="node2" class="node">
<title>recording_first_release_date</title>
<g id="a_node2"><a xlink:href="../../tables/recording_first_release_date.html" xlink:title="recording_first_release_date" target="_top">
<polygon fill="#ffffff" stroke="transparent" points="8,-233.2 8,-316.2 254,-316.2 254,-233.2 8,-233.2"/>
<polygon fill="#f5f5f5" stroke="transparent" points="8,-292.7 8,-315.7 254,-315.7 254,-292.7 8,-292.7"/>
<polygon fill="none" stroke="#000000" points="8,-292.7 8,-315.7 254,-315.7 254,-292.7 8,-292.7"/>
<text text-anchor="start" x="13" y="-301.3" font-family="Helvetica,sans-Serif" font-weight="bold" font-size="11.00" fill="#000000">recording_first_release_date</text>
<text text-anchor="start" x="219.5219" y="-300.8" font-family="Helvetica,sans-Serif" font-size="11.00" fill="#000000">[table]</text>
<polygon fill="none" stroke="#000000" points="8,-270.7 8,-292.7 254,-292.7 254,-270.7 8,-270.7"/>
<image xlink:href="../../images/primaryKeys.png" width="11px" height="12px" preserveAspectRatio="xMinYMin meet" x="13" y="-287.7"/>
<text text-anchor="start" x="37" y="-277.8" font-family="Helvetica,sans-Serif" font-size="11.00" fill="#000000">recording</text>
<polygon fill="none" stroke="#000000" points="8,-251.7 8,-270.7 254,-270.7 254,-251.7 8,-251.7"/>
<text text-anchor="start" x="11" y="-257.8" font-family="Helvetica,sans-Serif" font-size="11.00" fill="#000000">...</text>
<polygon fill="#ffffff" stroke="transparent" points="8,-232.7 8,-251.7 254,-251.7 254,-232.7 8,-232.7"/>
<polygon fill="none" stroke="#000000" points="8,-232.7 8,-251.7 254,-251.7 254,-232.7 8,-232.7"/>
<polygon fill="#ffffff" stroke="transparent" points="9,-233.7 9,-250.7 79,-250.7 79,-233.7 9,-233.7"/>
<text text-anchor="start" x="11" y="-238.8" font-family="Helvetica,sans-Serif" font-size="11.00" fill="#000000"> &#160;</text>
<polygon fill="#ffffff" stroke="transparent" points="79,-233.7 79,-250.7 175,-250.7 175,-233.7 79,-233.7"/>
<text text-anchor="start" x="110.8053" y="-238.8" font-family="Helvetica,sans-Serif" font-size="11.00" fill="#000000">0 rows</text>
<polygon fill="#ffffff" stroke="transparent" points="175,-233.7 175,-250.7 253,-250.7 253,-233.7 175,-233.7"/>
<text text-anchor="start" x="235.4053" y="-238.8" font-family="Helvetica,sans-Serif" font-size="11.00" fill="#000000">5 &gt;</text>
<polygon fill="#000000" stroke="#000000" points="79,-233.7 79,-250.7 79,-250.7 79,-233.7 79,-233.7"/>
<polygon fill="#000000" stroke="#000000" points="175,-233.7 175,-250.7 175,-250.7 175,-233.7 175,-233.7"/>
</a>
</g>
</g>
<!-- isrc&#45;&gt;recording_first_release_date -->
<g id="edge1" class="edge">
<title>isrc:w&#45;&gt;recording_first_release_date:e</title>
<path fill="none" stroke="#000000" stroke-dasharray="5,2" d="M436.4893,-470.8494C374.8382,-472.0541 342.522,-478.9933 295,-432.7 245.1873,-384.1753 323.541,-281.7 254,-281.7"/>
<polygon fill="#000000" stroke="#000000" points="443.0004,-470.7824 451.0371,-474.2998 447.0002,-470.7412 451,-470.7 451,-470.7 451,-470.7 447.0002,-470.7412 450.9629,-467.1002 443.0004,-470.7824 443.0004,-470.7824"/>
<ellipse fill="none" stroke="#000000" cx="439.8006" cy="-470.8154" rx="3.2" ry="3.2"/>
</g>
<!-- recording_alias -->
<g id="node3" class="node">
<title>recording_alias</title>
<g id="a_node3"><a xlink:href="../../tables/recording_alias.html" xlink:title="recording_alias" target="_top">
<polygon fill="#ffffff" stroke="transparent" points="431,-361.2 431,-422.2 581,-422.2 581,-361.2 431,-361.2"/>
<polygon fill="#f5f5f5" stroke="transparent" points="431,-398.7 431,-421.7 581,-421.7 581,-398.7 431,-398.7"/>
<polygon fill="none" stroke="#000000" points="431,-398.7 431,-421.7 581,-421.7 581,-398.7 431,-398.7"/>
<text text-anchor="start" x="436" y="-407.3" font-family="Helvetica,sans-Serif" font-weight="bold" font-size="11.00" fill="#000000">recording_alias</text>
<text text-anchor="start" x="546.5219" y="-406.8" font-family="Helvetica,sans-Serif" font-size="11.00" fill="#000000">[table]</text>
<polygon fill="none" stroke="#000000" points="431,-379.7 431,-398.7 581,-398.7 581,-379.7 431,-379.7"/>
<text text-anchor="start" x="434" y="-385.8" font-family="Helvetica,sans-Serif" font-size="11.00" fill="#000000">...</text>
<polygon fill="#ffffff" stroke="transparent" points="431,-360.7 431,-379.7 581,-379.7 581,-360.7 431,-360.7"/>
<polygon fill="none" stroke="#000000" points="431,-360.7 431,-379.7 581,-379.7 581,-360.7 431,-360.7"/>
<polygon fill="#ffffff" stroke="transparent" points="432,-361.7 432,-378.7 468,-378.7 468,-361.7 432,-361.7"/>
<text text-anchor="start" x="434" y="-366.8" font-family="Helvetica,sans-Serif" font-size="11.00" fill="#000000">&lt; 1</text>
<polygon fill="#ffffff" stroke="transparent" points="468,-361.7 468,-378.7 554,-378.7 554,-361.7 468,-361.7"/>
<text text-anchor="start" x="477.9896" y="-366.8" font-family="Helvetica,sans-Serif" font-size="11.00" fill="#000000">978,110 rows</text>
<polygon fill="#ffffff" stroke="transparent" points="554,-361.7 554,-378.7 580,-378.7 580,-361.7 554,-361.7"/>
<text text-anchor="start" x="571.8862" y="-366.8" font-family="Helvetica,sans-Serif" font-size="11.00" fill="#000000"> &#160;</text>
<polygon fill="#000000" stroke="#000000" points="468,-361.7 468,-378.7 468,-378.7 468,-361.7 468,-361.7"/>
<polygon fill="#000000" stroke="#000000" points="554,-361.7 554,-378.7 554,-378.7 554,-361.7 554,-361.7"/>
</a>
</g>
</g>
<!-- recording_alias&#45;&gt;recording_first_release_date -->
<g id="edge2" class="edge">
<title>recording_alias:w&#45;&gt;recording_first_release_date:e</title>
<path fill="none" stroke="#000000" stroke-dasharray="5,2" d="M416.3132,-388.682C364.2213,-388.4682 340.7392,-385.7285 295,-350.7 266.679,-329.0109 289.672,-281.7 254,-281.7"/>
<polygon fill="#000000" stroke="#000000" points="423,-388.6901 430.9956,-392.3 427,-388.6951 431,-388.7 431,-388.7 431,-388.7 427,-388.6951 431.0044,-385.1 423,-388.6901 423,-388.6901"/>
<ellipse fill="none" stroke="#000000" cx="419.8" cy="-388.6862" rx="3.2" ry="3.2"/>
</g>
<!-- recording_attribute -->
<g id="node4" class="node">
<title>recording_attribute</title>
<g id="a_node4"><a xlink:href="../../tables/recording_attribute.html" xlink:title="recording_attribute" target="_top">
<polygon fill="#ffffff" stroke="transparent" points="303,-183.7 303,-339.7 709,-339.7 709,-183.7 303,-183.7"/>
<polygon fill="#f5f5f5" stroke="transparent" points="305,-314.7 305,-337.7 707,-337.7 707,-314.7 305,-314.7"/>
<polygon fill="none" stroke="#000000" points="305,-314.7 305,-337.7 707,-337.7 707,-314.7 305,-314.7"/>
<text text-anchor="start" x="310" y="-323.3" font-family="Helvetica,sans-Serif" font-weight="bold" font-size="11.00" fill="#000000">recording_attribute</text>
<text text-anchor="start" x="672.0437" y="-322.8" font-family="Helvetica,sans-Serif" font-size="11.00" fill="#000000">[table]</text>
<polygon fill="none" stroke="#000000" points="305,-292.7 305,-314.7 617,-314.7 617,-292.7 305,-292.7"/>
<image xlink:href="../../images/primaryKeys.png" width="11px" height="12px" preserveAspectRatio="xMinYMin meet" x="310" y="-309.7"/>
<text text-anchor="start" x="325" y="-299.8" font-family="Helvetica,sans-Serif" font-size="11.00" fill="#000000">id</text>
<polygon fill="none" stroke="#000000" points="617,-292.7 617,-314.7 707,-314.7 707,-292.7 617,-292.7"/>
<text text-anchor="start" x="620" y="-300.4" font-family="Helvetica,sans-Serif" font-size="11.00" fill="#000000">serial[10]</text>
<polygon fill="#ffffff" stroke="transparent" points="305,-270.7 305,-292.7 617,-292.7 617,-270.7 305,-270.7"/>
<polygon fill="none" stroke="#000000" points="305,-270.7 305,-292.7 617,-292.7 617,-270.7 305,-270.7"/>
<image xlink:href="../../images/foreignKeys.png" width="11px" height="12px" preserveAspectRatio="xMinYMin meet" x="310" y="-287.7"/>
<text text-anchor="start" x="325" y="-277.8" font-family="Helvetica,sans-Serif" font-size="11.00" fill="#000000">recording</text>
<polygon fill="none" stroke="#000000" points="617,-270.7 617,-292.7 707,-292.7 707,-270.7 617,-270.7"/>
<text text-anchor="start" x="620" y="-278.4" font-family="Helvetica,sans-Serif" font-size="11.00" fill="#000000">int4[10]</text>
<polygon fill="none" stroke="#000000" points="305,-248.7 305,-270.7 617,-270.7 617,-248.7 305,-248.7"/>
<text text-anchor="start" x="325" y="-255.8" font-family="Helvetica,sans-Serif" font-size="11.00" fill="#000000">recording_attribute_type</text>
<polygon fill="none" stroke="#000000" points="617,-248.7 617,-270.7 707,-270.7 707,-248.7 617,-248.7"/>
<text text-anchor="start" x="620" y="-256.4" font-family="Helvetica,sans-Serif" font-size="11.00" fill="#000000">int4[10]</text>
<polygon fill="none" stroke="#000000" points="305,-226.7 305,-248.7 617,-248.7 617,-226.7 305,-226.7"/>
<text text-anchor="start" x="325" y="-233.8" font-family="Helvetica,sans-Serif" font-size="11.00" fill="#000000">recording_attribute_type_allowed_value</text>
<polygon fill="none" stroke="#000000" points="617,-226.7 617,-248.7 707,-248.7 707,-226.7 617,-226.7"/>
<text text-anchor="start" x="620" y="-234.4" font-family="Helvetica,sans-Serif" font-size="11.00" fill="#000000">int4[10]</text>
<polygon fill="none" stroke="#000000" points="305,-204.7 305,-226.7 617,-226.7 617,-204.7 305,-204.7"/>
<text text-anchor="start" x="325" y="-211.8" font-family="Helvetica,sans-Serif" font-size="11.00" fill="#000000">recording_attribute_text</text>
<polygon fill="none" stroke="#000000" points="617,-204.7 617,-226.7 707,-226.7 707,-204.7 617,-204.7"/>
<text text-anchor="start" x="619.5043" y="-212.4" font-family="Helvetica,sans-Serif" font-size="11.00" fill="#000000">text[2147483647]</text>
<polygon fill="#ffffff" stroke="transparent" points="305,-185.7 305,-204.7 707,-204.7 707,-185.7 305,-185.7"/>
<polygon fill="none" stroke="#000000" points="305,-185.7 305,-204.7 707,-204.7 707,-185.7 305,-185.7"/>
<polygon fill="#ffffff" stroke="transparent" points="306,-186.7 306,-203.7 434,-203.7 434,-186.7 306,-186.7"/>
<text text-anchor="start" x="308" y="-191.8" font-family="Helvetica,sans-Serif" font-size="11.00" fill="#000000">&lt; 1</text>
<polygon fill="#ffffff" stroke="transparent" points="434,-186.7 434,-203.7 579,-203.7 579,-186.7 434,-186.7"/>
<text text-anchor="start" x="490.3053" y="-191.8" font-family="Helvetica,sans-Serif" font-size="11.00" fill="#000000">0 rows</text>
<polygon fill="#ffffff" stroke="transparent" points="579,-186.7 579,-203.7 706,-203.7 706,-186.7 579,-186.7"/>
<text text-anchor="start" x="688.4053" y="-191.8" font-family="Helvetica,sans-Serif" font-size="11.00" fill="#000000">0 &gt;</text>
<polygon fill="#000000" stroke="#000000" points="434,-186.7 434,-203.7 434,-203.7 434,-186.7 434,-186.7"/>
<polygon fill="#000000" stroke="#000000" points="579,-186.7 579,-203.7 579,-203.7 579,-186.7 579,-186.7"/>
<polygon fill="none" stroke="#000000" stroke-width="2" points="304,-184.7 304,-338.7 708,-338.7 708,-184.7 304,-184.7"/>
</a>
</g>
</g>
<!-- recording_attribute&#45;&gt;recording_first_release_date -->
<g id="edge3" class="edge">
<title>recording_attribute:w&#45;&gt;recording_first_release_date:e</title>
<path fill="none" stroke="#000000" stroke-dasharray="5,2" d="M290.276,-281.7C278.2815,-281.7 270.8229,-281.7 254,-281.7"/>
<polygon fill="#000000" stroke="#000000" points="297,-281.7001 305,-285.3 301,-281.7 305,-281.7 305,-281.7 305,-281.7 301,-281.7 305,-278.1 297,-281.7001 297,-281.7001"/>
<ellipse fill="none" stroke="#000000" cx="293.8" cy="-281.7001" rx="3.2" ry="3.2"/>
</g>
<!-- recording_series -->
<g id="node5" class="node">
<title>recording_series</title>
<g id="a_node5"><a xlink:href="../../tables/recording_series.html" xlink:title="recording_series" target="_top">
<polygon fill="#ffffff" stroke="transparent" points="426.5,-120.7 426.5,-162.7 585.5,-162.7 585.5,-120.7 426.5,-120.7"/>
<polygon fill="#f5f5f5" stroke="transparent" points="427,-139.7 427,-162.7 586,-162.7 586,-139.7 427,-139.7"/>
<polygon fill="none" stroke="#000000" points="427,-139.7 427,-162.7 586,-162.7 586,-139.7 427,-139.7"/>
<text text-anchor="start" x="432" y="-148.3" font-family="Helvetica,sans-Serif" font-weight="bold" font-size="11.00" fill="#000000">recording_series</text>
<text text-anchor="start" x="552.9448" y="-147.8" font-family="Helvetica,sans-Serif" font-size="11.00" fill="#000000">[view]</text>
<polygon fill="none" stroke="#000000" points="427,-120.7 427,-139.7 586,-139.7 586,-120.7 427,-120.7"/>
<text text-anchor="start" x="430" y="-126.8" font-family="Helvetica,sans-Serif" font-size="11.00" fill="#000000">...</text>
</a>
</g>
</g>
<!-- recording_series&#45;&gt;recording_first_release_date -->
<g id="edge4" class="edge">
<title>recording_series:w&#45;&gt;recording_first_release_date:e</title>
<path fill="none" stroke="#000000" stroke-dasharray="5,2" d="M412.4837,-129.7461C360.8408,-130.1737 335.9563,-134.3922 295,-173.7 257.9575,-209.2514 305.3425,-281.7 254,-281.7"/>
<polygon fill="#000000" stroke="#000000" points="419,-129.7255 427.0115,-133.3 423,-129.7127 427,-129.7 427,-129.7 427,-129.7 423,-129.7127 426.9885,-126.1 419,-129.7255 419,-129.7255"/>
<ellipse fill="none" stroke="#000000" cx="415.8001" cy="-129.7357" rx="3.2" ry="3.2"/>
</g>
<!-- track -->
<g id="node6" class="node">
<title>track</title>
<g id="a_node6"><a xlink:href="../../tables/track.html" xlink:title="track" target="_top">
<polygon fill="#ffffff" stroke="transparent" points="448,-38.2 448,-99.2 564,-99.2 564,-38.2 448,-38.2"/>
<polygon fill="#f5f5f5" stroke="transparent" points="448,-75.7 448,-98.7 564,-98.7 564,-75.7 448,-75.7"/>
<polygon fill="none" stroke="#000000" points="448,-75.7 448,-98.7 564,-98.7 564,-75.7 448,-75.7"/>
<text text-anchor="start" x="453" y="-84.3" font-family="Helvetica,sans-Serif" font-weight="bold" font-size="11.00" fill="#000000">track</text>
<text text-anchor="start" x="529.0437" y="-83.8" font-family="Helvetica,sans-Serif" font-size="11.00" fill="#000000">[table]</text>
<polygon fill="none" stroke="#000000" points="448,-56.7 448,-75.7 564,-75.7 564,-56.7 448,-56.7"/>
<text text-anchor="start" x="451" y="-62.8" font-family="Helvetica,sans-Serif" font-size="11.00" fill="#000000">...</text>
<polygon fill="#ffffff" stroke="transparent" points="448,-37.7 448,-56.7 564,-56.7 564,-37.7 448,-37.7"/>
<polygon fill="none" stroke="#000000" points="448,-37.7 448,-56.7 564,-56.7 564,-37.7 448,-37.7"/>
<polygon fill="#ffffff" stroke="transparent" points="449,-38.7 449,-55.7 468,-55.7 468,-38.7 449,-38.7"/>
<text text-anchor="start" x="450.7027" y="-43.8" font-family="Helvetica,sans-Serif" font-size="11.00" fill="#000000">&lt; 2</text>
<polygon fill="#ffffff" stroke="transparent" points="468,-38.7 468,-55.7 553,-55.7 553,-38.7 468,-38.7"/>
<text text-anchor="start" x="469.8462" y="-43.8" font-family="Helvetica,sans-Serif" font-size="11.00" fill="#000000">55,639,772 rows</text>
<polygon fill="#ffffff" stroke="transparent" points="553,-38.7 553,-55.7 563,-55.7 563,-38.7 553,-38.7"/>
<text text-anchor="start" x="554.9431" y="-43.8" font-family="Helvetica,sans-Serif" font-size="11.00" fill="#000000"> &#160;</text>
<polygon fill="#000000" stroke="#000000" points="468,-38.7 468,-55.7 468,-55.7 468,-38.7 468,-38.7"/>
<polygon fill="#000000" stroke="#000000" points="553,-38.7 553,-55.7 553,-55.7 553,-38.7 553,-38.7"/>
</a>
</g>
</g>
<!-- track&#45;&gt;recording_first_release_date -->
<g id="edge5" class="edge">
<title>track:w&#45;&gt;recording_first_release_date:e</title>
<path fill="none" stroke="#000000" stroke-dasharray="5,2" d="M433.5878,-65.6277C372.362,-65.089 340.3991,-62.9375 295,-110.7 241.1561,-167.347 332.154,-281.7 254,-281.7"/>
<polygon fill="#000000" stroke="#000000" points="440.0001,-65.6598 447.9819,-69.3 444.0001,-65.6799 448,-65.7 448,-65.7 448,-65.7 444.0001,-65.6799 448.0181,-62.1 440.0001,-65.6598 440.0001,-65.6598"/>
<ellipse fill="none" stroke="#000000" cx="436.8001" cy="-65.6438" rx="3.2" ry="3.2"/>
</g>
</g>
</svg>
