<?xml version="1.0" encoding="UTF-8" standalone="no"?>
<!DOCTYPE svg PUBLIC "-//W3C//DTD SVG 1.1//EN"
 "http://www.w3.org/Graphics/SVG/1.1/DTD/svg11.dtd">
<!-- Generated by graphviz version 2.40.1 (20161225.0304)
 -->
<!-- Title: oneDegreeRelationshipsDiagram Pages: 1 -->
<svg width="229pt" height="140pt"
 viewBox="0.00 0.00 229.00 140.20" xmlns="http://www.w3.org/2000/svg" xmlns:xlink="http://www.w3.org/1999/xlink">
<g id="graph0" class="graph" transform="scale(1 1) rotate(0) translate(4 136.2)">
<title>oneDegreeRelationshipsDiagram</title>
<polygon fill="#ffffff" stroke="transparent" points="-4,4 -4,-136.2 225,-136.2 225,4 -4,4"/>
<text text-anchor="middle" x="72.4936" y="-7.3" font-family="Helvetica,sans-Serif" font-size="11.00" fill="#000000">Generated by SchemaSpy</text>
<!-- edit_release_group -->
<g id="node1" class="node">
<title>edit_release_group</title>
<g id="a_node1"><a xlink:href="../../tables/edit_release_group.html" xlink:title="edit_release_group" target="_top">
<polygon fill="#ffffff" stroke="transparent" points="8,-38.2 8,-128.2 213,-128.2 213,-38.2 8,-38.2"/>
<polygon fill="#f5f5f5" stroke="transparent" points="10.5,-103.2 10.5,-126.2 211.5,-126.2 211.5,-103.2 10.5,-103.2"/>
<polygon fill="none" stroke="#000000" points="10.5,-103.2 10.5,-126.2 211.5,-126.2 211.5,-103.2 10.5,-103.2"/>
<text text-anchor="start" x="15.5" y="-111.8" font-family="Helvetica,sans-Serif" font-weight="bold" font-size="11.00" fill="#000000">edit_release_group</text>
<text text-anchor="start" x="176.5437" y="-111.3" font-family="Helvetica,sans-Serif" font-size="11.00" fill="#000000">[table]</text>
<polygon fill="none" stroke="#000000" points="10.5,-81.2 10.5,-103.2 169.5,-103.2 169.5,-81.2 10.5,-81.2"/>
<image xlink:href="../../images/primaryKeys.png" width="11px" height="12px" preserveAspectRatio="xMinYMin meet" x="15.5" y="-98.2"/>
<text text-anchor="start" x="30.5" y="-88.3" font-family="Helvetica,sans-Serif" font-size="11.00" fill="#000000">edit</text>
<polygon fill="none" stroke="#000000" points="169.5,-81.2 169.5,-103.2 211.5,-103.2 211.5,-81.2 169.5,-81.2"/>
<text text-anchor="start" x="172.4644" y="-88.9" font-family="Helvetica,sans-Serif" font-size="11.00" fill="#000000">int4[10]</text>
<polygon fill="none" stroke="#000000" points="10.5,-59.2 10.5,-81.2 169.5,-81.2 169.5,-59.2 10.5,-59.2"/>
<image xlink:href="../../images/primaryKeys.png" width="11px" height="12px" preserveAspectRatio="xMinYMin meet" x="15.5" y="-76.2"/>
<text text-anchor="start" x="30.5" y="-66.3" font-family="Helvetica,sans-Serif" font-size="11.00" fill="#000000">release_group</text>
<polygon fill="none" stroke="#000000" points="169.5,-59.2 169.5,-81.2 211.5,-81.2 211.5,-59.2 169.5,-59.2"/>
<text text-anchor="start" x="172.4644" y="-66.9" font-family="Helvetica,sans-Serif" font-size="11.00" fill="#000000">int4[10]</text>
<polygon fill="#ffffff" stroke="transparent" points="10.5,-40.2 10.5,-59.2 211.5,-59.2 211.5,-40.2 10.5,-40.2"/>
<polygon fill="none" stroke="#000000" points="10.5,-40.2 10.5,-59.2 211.5,-59.2 211.5,-40.2 10.5,-40.2"/>
<polygon fill="#ffffff" stroke="transparent" points="11.5,-41.2 11.5,-58.2 72.5,-58.2 72.5,-41.2 11.5,-41.2"/>
<text text-anchor="start" x="13.5" y="-46.3" font-family="Helvetica,sans-Serif" font-size="11.00" fill="#000000">&lt; 0</text>
<polygon fill="#ffffff" stroke="transparent" points="72.5,-41.2 72.5,-58.2 150.5,-58.2 150.5,-41.2 72.5,-41.2"/>
<text text-anchor="start" x="95.3053" y="-46.3" font-family="Helvetica,sans-Serif" font-size="11.00" fill="#000000">0 rows</text>
<polygon fill="#ffffff" stroke="transparent" points="150.5,-41.2 150.5,-58.2 210.5,-58.2 210.5,-41.2 150.5,-41.2"/>
<text text-anchor="start" x="192.9053" y="-46.3" font-family="Helvetica,sans-Serif" font-size="11.00" fill="#000000">0 &gt;</text>
<polygon fill="#000000" stroke="#000000" points="72.5,-41.2 72.5,-58.2 72.5,-58.2 72.5,-41.2 72.5,-41.2"/>
<polygon fill="#000000" stroke="#000000" points="150.5,-41.2 150.5,-58.2 150.5,-58.2 150.5,-41.2 150.5,-41.2"/>
<polygon fill="none" stroke="#000000" stroke-width="2" points="9,-39.2 9,-127.2 212,-127.2 212,-39.2 9,-39.2"/>
</a>
</g>
</g>
</g>
</svg>
